G04 #@! TF.GenerationSoftware,KiCad,Pcbnew,(5.1.4)-1*
G04 #@! TF.CreationDate,2020-11-02T02:16:24+01:00*
G04 #@! TF.ProjectId,FER_ESC_v2r1,4645525f-4553-4435-9f76-3272312e6b69,rev?*
G04 #@! TF.SameCoordinates,Original*
G04 #@! TF.FileFunction,Legend,Top*
G04 #@! TF.FilePolarity,Positive*
%FSLAX46Y46*%
G04 Gerber Fmt 4.6, Leading zero omitted, Abs format (unit mm)*
G04 Created by KiCad (PCBNEW (5.1.4)-1) date 2020-11-02 02:16:24*
%MOMM*%
%LPD*%
G04 APERTURE LIST*
%ADD10C,0.125000*%
%ADD11C,0.250000*%
%ADD12C,0.120000*%
%ADD13C,0.150000*%
G04 APERTURE END LIST*
D10*
X123472730Y-131902380D02*
X123612611Y-131926190D01*
X123850706Y-131926190D01*
X123948921Y-131902380D01*
X123999516Y-131878571D01*
X124053087Y-131830952D01*
X124059040Y-131783333D01*
X124017373Y-131735714D01*
X123972730Y-131711904D01*
X123880468Y-131688095D01*
X123692968Y-131664285D01*
X123600706Y-131640476D01*
X123556063Y-131616666D01*
X123514397Y-131569047D01*
X123520349Y-131521428D01*
X123573921Y-131473809D01*
X123624516Y-131450000D01*
X123722730Y-131426190D01*
X123960825Y-131426190D01*
X124100706Y-131450000D01*
X124389397Y-131426190D02*
X124960825Y-131426190D01*
X124612611Y-131926190D02*
X124675111Y-131426190D01*
X125201897Y-131783333D02*
X125678087Y-131783333D01*
X125088802Y-131926190D02*
X125484635Y-131426190D01*
X125755468Y-131926190D01*
X126008444Y-131426190D02*
X126579873Y-131426190D01*
X126231659Y-131926190D02*
X126294159Y-131426190D01*
X126913206Y-131426190D02*
X126862611Y-131830952D01*
X126904278Y-131878571D01*
X126948921Y-131902380D01*
X127041183Y-131926190D01*
X127231659Y-131926190D01*
X127329873Y-131902380D01*
X127380468Y-131878571D01*
X127434040Y-131830952D01*
X127484635Y-131426190D01*
X127853683Y-131902380D02*
X127993563Y-131926190D01*
X128231659Y-131926190D01*
X128329873Y-131902380D01*
X128380468Y-131878571D01*
X128434040Y-131830952D01*
X128439992Y-131783333D01*
X128398325Y-131735714D01*
X128353683Y-131711904D01*
X128261421Y-131688095D01*
X128073921Y-131664285D01*
X127981659Y-131640476D01*
X127937016Y-131616666D01*
X127895349Y-131569047D01*
X127901302Y-131521428D01*
X127954873Y-131473809D01*
X128005468Y-131450000D01*
X128103683Y-131426190D01*
X128341778Y-131426190D01*
X128481659Y-131450000D01*
X199792857Y-123288578D02*
X200126190Y-123330245D01*
X199602380Y-123502864D02*
X199959523Y-123785602D01*
X199959523Y-123166555D01*
X199840476Y-122627864D02*
X199816666Y-122720126D01*
X199792857Y-122764769D01*
X199745238Y-122806436D01*
X199721428Y-122803459D01*
X199673809Y-122749888D01*
X199650000Y-122699293D01*
X199626190Y-122601078D01*
X199626190Y-122410602D01*
X199650000Y-122318340D01*
X199673809Y-122273697D01*
X199721428Y-122232031D01*
X199745238Y-122235007D01*
X199792857Y-122288578D01*
X199816666Y-122339174D01*
X199840476Y-122437388D01*
X199840476Y-122627864D01*
X199864285Y-122726078D01*
X199888095Y-122776674D01*
X199935714Y-122830245D01*
X200030952Y-122842150D01*
X200078571Y-122800483D01*
X200102380Y-122755840D01*
X200126190Y-122663578D01*
X200126190Y-122473102D01*
X200102380Y-122374888D01*
X200078571Y-122324293D01*
X200030952Y-122270721D01*
X199935714Y-122258816D01*
X199888095Y-122300483D01*
X199864285Y-122345126D01*
X199840476Y-122437388D01*
X199626190Y-121172507D02*
X200126190Y-120901674D01*
X199626190Y-120505840D01*
X200126190Y-119806436D02*
X199626190Y-119743936D01*
X200102380Y-119803459D02*
X200126190Y-119901674D01*
X200126190Y-120092150D01*
X200102380Y-120184412D01*
X200078571Y-120229055D01*
X200030952Y-120270721D01*
X199888095Y-120252864D01*
X199840476Y-120199293D01*
X199816666Y-120148697D01*
X199792857Y-120050483D01*
X199792857Y-119860007D01*
X199816666Y-119767745D01*
X200102380Y-118898697D02*
X200126190Y-118996912D01*
X200126190Y-119187388D01*
X200102380Y-119279650D01*
X200078571Y-119324293D01*
X200030952Y-119365959D01*
X199888095Y-119348102D01*
X199840476Y-119294531D01*
X199816666Y-119243936D01*
X199792857Y-119145721D01*
X199792857Y-118955245D01*
X199816666Y-118862983D01*
X200102380Y-118422507D02*
X200126190Y-118425483D01*
X200173809Y-118479055D01*
X200197619Y-118529650D01*
X199626190Y-117267745D02*
X199626190Y-116601078D01*
X200126190Y-117092150D01*
X199626190Y-116029650D02*
X199626190Y-115934412D01*
X199650000Y-115842150D01*
X199673809Y-115797507D01*
X199721428Y-115755840D01*
X199816666Y-115720126D01*
X199935714Y-115735007D01*
X200030952Y-115794531D01*
X200078571Y-115848102D01*
X200102380Y-115898697D01*
X200126190Y-115996912D01*
X200126190Y-116092150D01*
X200102380Y-116184412D01*
X200078571Y-116229055D01*
X200030952Y-116270721D01*
X199935714Y-116306436D01*
X199816666Y-116291555D01*
X199721428Y-116232031D01*
X199673809Y-116178459D01*
X199650000Y-116127864D01*
X199626190Y-116029650D01*
X199983333Y-114598102D02*
X199983333Y-114121912D01*
X200126190Y-114711197D02*
X199626190Y-114315364D01*
X200126190Y-114044531D01*
X200126190Y-113711197D02*
X199792857Y-113669531D01*
X199888095Y-113681436D02*
X199840476Y-113627864D01*
X199816666Y-113577269D01*
X199792857Y-113479055D01*
X199792857Y-113383816D01*
X200126190Y-113092150D02*
X199792857Y-113050483D01*
X199840476Y-113056436D02*
X199816666Y-113005840D01*
X199792857Y-112907626D01*
X199792857Y-112764769D01*
X199816666Y-112672507D01*
X199864285Y-112630840D01*
X200126190Y-112663578D01*
X199864285Y-112630840D02*
X199816666Y-112577269D01*
X199792857Y-112479055D01*
X199792857Y-112336197D01*
X199816666Y-112243936D01*
X199864285Y-112202269D01*
X200126190Y-112235007D01*
X200102380Y-111803459D02*
X200126190Y-111711197D01*
X200126190Y-111520721D01*
X200102380Y-111422507D01*
X200054761Y-111368936D01*
X200030952Y-111365959D01*
X199983333Y-111407626D01*
X199959523Y-111499888D01*
X199959523Y-111642745D01*
X199935714Y-111735007D01*
X199888095Y-111776674D01*
X199864285Y-111773697D01*
X199816666Y-111720126D01*
X199792857Y-111621912D01*
X199792857Y-111479055D01*
X199816666Y-111386793D01*
X199792857Y-110145721D02*
X200292857Y-110208221D01*
X199816666Y-110148697D02*
X199792857Y-110050483D01*
X199792857Y-109860007D01*
X199816666Y-109767745D01*
X199840476Y-109723102D01*
X199888095Y-109681436D01*
X200030952Y-109699293D01*
X200078571Y-109752864D01*
X200102380Y-109803459D01*
X200126190Y-109901674D01*
X200126190Y-110092150D01*
X200102380Y-110184412D01*
X200126190Y-109282626D02*
X199626190Y-109220126D01*
X199935714Y-109163578D02*
X200126190Y-108901674D01*
X199792857Y-108860007D02*
X199983333Y-109264769D01*
X199326190Y-119773102D02*
X199326190Y-120344531D01*
X199326190Y-120058816D02*
X198826190Y-119996316D01*
X198897619Y-120100483D01*
X198945238Y-120201674D01*
X198969047Y-120299888D01*
X198826190Y-119091555D02*
X198826190Y-118996316D01*
X198850000Y-118904055D01*
X198873809Y-118859412D01*
X198921428Y-118817745D01*
X199016666Y-118782031D01*
X199135714Y-118796912D01*
X199230952Y-118856436D01*
X199278571Y-118910007D01*
X199302380Y-118960602D01*
X199326190Y-119058816D01*
X199326190Y-119154055D01*
X199302380Y-119246316D01*
X199278571Y-119290959D01*
X199230952Y-119332626D01*
X199135714Y-119368340D01*
X199016666Y-119353459D01*
X198921428Y-119293936D01*
X198873809Y-119240364D01*
X198850000Y-119189769D01*
X198826190Y-119091555D01*
X198802380Y-117612388D02*
X199445238Y-118549888D01*
X198873809Y-117335602D02*
X198850000Y-117285007D01*
X198826190Y-117186793D01*
X198826190Y-116948697D01*
X198850000Y-116856436D01*
X198873809Y-116811793D01*
X198921428Y-116770126D01*
X198969047Y-116776078D01*
X199040476Y-116832626D01*
X199326190Y-117439769D01*
X199326190Y-116820721D01*
X198826190Y-116139174D02*
X198826190Y-116043936D01*
X198850000Y-115951674D01*
X198873809Y-115907031D01*
X198921428Y-115865364D01*
X199016666Y-115829650D01*
X199135714Y-115844531D01*
X199230952Y-115904055D01*
X199278571Y-115957626D01*
X199302380Y-116008221D01*
X199326190Y-116106436D01*
X199326190Y-116201674D01*
X199302380Y-116293936D01*
X199278571Y-116338578D01*
X199230952Y-116380245D01*
X199135714Y-116415959D01*
X199016666Y-116401078D01*
X198921428Y-116341555D01*
X198873809Y-116287983D01*
X198850000Y-116237388D01*
X198826190Y-116139174D01*
X198873809Y-115430840D02*
X198850000Y-115380245D01*
X198826190Y-115282031D01*
X198826190Y-115043936D01*
X198850000Y-114951674D01*
X198873809Y-114907031D01*
X198921428Y-114865364D01*
X198969047Y-114871316D01*
X199040476Y-114927864D01*
X199326190Y-115535007D01*
X199326190Y-114915959D01*
X198826190Y-114234412D02*
X198826190Y-114139174D01*
X198850000Y-114046912D01*
X198873809Y-114002269D01*
X198921428Y-113960602D01*
X199016666Y-113924888D01*
X199135714Y-113939769D01*
X199230952Y-113999293D01*
X199278571Y-114052864D01*
X199302380Y-114103459D01*
X199326190Y-114201674D01*
X199326190Y-114296912D01*
X199302380Y-114389174D01*
X199278571Y-114433816D01*
X199230952Y-114475483D01*
X199135714Y-114511197D01*
X199016666Y-114496316D01*
X198921428Y-114436793D01*
X198873809Y-114383221D01*
X198850000Y-114332626D01*
X198826190Y-114234412D01*
X195230468Y-104392857D02*
X195611421Y-104392857D01*
X195394159Y-104226190D02*
X195340587Y-104654761D01*
X195382254Y-104702380D01*
X195474516Y-104726190D01*
X195569754Y-104726190D01*
X195903087Y-104726190D02*
X195944754Y-104392857D01*
X195965587Y-104226190D02*
X195914992Y-104250000D01*
X195959635Y-104273809D01*
X196010230Y-104250000D01*
X195965587Y-104226190D01*
X195959635Y-104273809D01*
X196325706Y-104392857D02*
X196522135Y-104726190D01*
X196801897Y-104392857D01*
X197569754Y-104726190D02*
X197602492Y-104464285D01*
X197560825Y-104416666D01*
X197468563Y-104392857D01*
X197278087Y-104392857D01*
X197179873Y-104416666D01*
X197572730Y-104702380D02*
X197474516Y-104726190D01*
X197236421Y-104726190D01*
X197144159Y-104702380D01*
X197102492Y-104654761D01*
X197108444Y-104607142D01*
X197162016Y-104559523D01*
X197260230Y-104535714D01*
X197498325Y-104535714D01*
X197596540Y-104511904D01*
X198087611Y-104392857D02*
X198045944Y-104726190D01*
X198081659Y-104440476D02*
X198132254Y-104416666D01*
X198230468Y-104392857D01*
X198373325Y-104392857D01*
X198465587Y-104416666D01*
X198507254Y-104464285D01*
X198474516Y-104726190D01*
X198950706Y-104726190D02*
X198992373Y-104392857D01*
X199013206Y-104226190D02*
X198962611Y-104250000D01*
X199007254Y-104273809D01*
X199057849Y-104250000D01*
X199013206Y-104226190D01*
X199007254Y-104273809D01*
X199382254Y-104702380D02*
X199474516Y-104726190D01*
X199664992Y-104726190D01*
X199763206Y-104702380D01*
X199816778Y-104654761D01*
X199819754Y-104630952D01*
X199778087Y-104583333D01*
X199685825Y-104559523D01*
X199542968Y-104559523D01*
X199450706Y-104535714D01*
X199409040Y-104488095D01*
X199412016Y-104464285D01*
X199465587Y-104416666D01*
X199563802Y-104392857D01*
X199706659Y-104392857D01*
X199798921Y-104416666D01*
X171084040Y-106735714D02*
X171845944Y-106735714D01*
X171441183Y-106926190D02*
X171488802Y-106545238D01*
X172837016Y-106426190D02*
X172360825Y-106426190D01*
X172283444Y-106664285D01*
X172334040Y-106640476D01*
X172432254Y-106616666D01*
X172670349Y-106616666D01*
X172762611Y-106640476D01*
X172807254Y-106664285D01*
X172848921Y-106711904D01*
X172834040Y-106830952D01*
X172780468Y-106878571D01*
X172729873Y-106902380D01*
X172631659Y-106926190D01*
X172393563Y-106926190D01*
X172301302Y-106902380D01*
X172256659Y-106878571D01*
X173170349Y-106426190D02*
X173441183Y-106926190D01*
X173837016Y-106426190D01*
D11*
X180338095Y-127071428D02*
X181861904Y-127071428D01*
X198838095Y-127571428D02*
X200361904Y-127571428D01*
X199600000Y-127952380D02*
X199600000Y-127190476D01*
X191528571Y-62952380D02*
X191528571Y-63761904D01*
X191623809Y-63857142D01*
X191719047Y-63904761D01*
X191909523Y-63952380D01*
X192290476Y-63952380D01*
X192480952Y-63904761D01*
X192576190Y-63857142D01*
X192671428Y-63761904D01*
X192671428Y-62952380D01*
X160333333Y-62952380D02*
X161000000Y-63952380D01*
X161666666Y-62952380D01*
X129642857Y-63152380D02*
X130119047Y-64152380D01*
X130500000Y-63438095D01*
X130880952Y-64152380D01*
X131357142Y-63152380D01*
D10*
X159578571Y-128773809D02*
X159602380Y-128821428D01*
X159626190Y-128964285D01*
X159626190Y-129059523D01*
X159602380Y-129202380D01*
X159554761Y-129297619D01*
X159507142Y-129345238D01*
X159411904Y-129392857D01*
X159340476Y-129392857D01*
X159245238Y-129345238D01*
X159197619Y-129297619D01*
X159150000Y-129202380D01*
X159126190Y-129059523D01*
X159126190Y-128964285D01*
X159150000Y-128821428D01*
X159173809Y-128773809D01*
X159483333Y-128392857D02*
X159483333Y-127916666D01*
X159626190Y-128488095D02*
X159126190Y-128154761D01*
X159626190Y-127821428D01*
X159626190Y-127488095D02*
X159126190Y-127488095D01*
X159626190Y-126916666D01*
X159126190Y-126916666D01*
X159364285Y-125345238D02*
X159388095Y-125202380D01*
X159411904Y-125154761D01*
X159459523Y-125107142D01*
X159530952Y-125107142D01*
X159578571Y-125154761D01*
X159602380Y-125202380D01*
X159626190Y-125297619D01*
X159626190Y-125678571D01*
X159126190Y-125678571D01*
X159126190Y-125345238D01*
X159150000Y-125250000D01*
X159173809Y-125202380D01*
X159221428Y-125154761D01*
X159269047Y-125154761D01*
X159316666Y-125202380D01*
X159340476Y-125250000D01*
X159364285Y-125345238D01*
X159364285Y-125678571D01*
X159126190Y-124678571D02*
X159530952Y-124678571D01*
X159578571Y-124630952D01*
X159602380Y-124583333D01*
X159626190Y-124488095D01*
X159626190Y-124297619D01*
X159602380Y-124202380D01*
X159578571Y-124154761D01*
X159530952Y-124107142D01*
X159126190Y-124107142D01*
X159602380Y-123678571D02*
X159626190Y-123535714D01*
X159626190Y-123297619D01*
X159602380Y-123202380D01*
X159578571Y-123154761D01*
X159530952Y-123107142D01*
X159483333Y-123107142D01*
X159435714Y-123154761D01*
X159411904Y-123202380D01*
X159388095Y-123297619D01*
X159364285Y-123488095D01*
X159340476Y-123583333D01*
X159316666Y-123630952D01*
X159269047Y-123678571D01*
X159221428Y-123678571D01*
X159173809Y-123630952D01*
X159150000Y-123583333D01*
X159126190Y-123488095D01*
X159126190Y-123250000D01*
X159150000Y-123107142D01*
X140283333Y-129354761D02*
X140283333Y-128878571D01*
X140426190Y-129450000D02*
X139926190Y-129116666D01*
X140426190Y-128783333D01*
X140426190Y-128450000D02*
X139926190Y-128450000D01*
X140426190Y-127878571D01*
X139926190Y-127878571D01*
X140426190Y-126640476D02*
X139926190Y-126640476D01*
X140426190Y-126164285D02*
X139926190Y-126164285D01*
X140426190Y-125592857D01*
X139926190Y-125592857D01*
X138983444Y-110564285D02*
X138650111Y-110564285D01*
X138617373Y-110826190D02*
X138679873Y-110326190D01*
X139156063Y-110326190D01*
X139444754Y-110683333D02*
X139920944Y-110683333D01*
X139331659Y-110826190D02*
X139727492Y-110326190D01*
X139998325Y-110826190D01*
X140394159Y-110326190D02*
X140343563Y-110730952D01*
X140385230Y-110778571D01*
X140429873Y-110802380D01*
X140522135Y-110826190D01*
X140712611Y-110826190D01*
X140810825Y-110802380D01*
X140861421Y-110778571D01*
X140914992Y-110730952D01*
X140965587Y-110326190D01*
X141855468Y-110826190D02*
X141379278Y-110826190D01*
X141441778Y-110326190D01*
X142108444Y-110326190D02*
X142679873Y-110326190D01*
X142331659Y-110826190D02*
X142394159Y-110326190D01*
X169314285Y-129266666D02*
X169314285Y-128933333D01*
X169576190Y-128790476D02*
X169576190Y-129266666D01*
X169076190Y-129266666D01*
X169076190Y-128790476D01*
X169076190Y-128457142D02*
X169576190Y-127790476D01*
X169076190Y-127790476D02*
X169576190Y-128457142D01*
X169076190Y-127552380D02*
X169076190Y-126980952D01*
X169576190Y-127266666D02*
X169076190Y-127266666D01*
X169552380Y-125933333D02*
X169576190Y-125790476D01*
X169576190Y-125552380D01*
X169552380Y-125457142D01*
X169528571Y-125409523D01*
X169480952Y-125361904D01*
X169433333Y-125361904D01*
X169385714Y-125409523D01*
X169361904Y-125457142D01*
X169338095Y-125552380D01*
X169314285Y-125742857D01*
X169290476Y-125838095D01*
X169266666Y-125885714D01*
X169219047Y-125933333D01*
X169171428Y-125933333D01*
X169123809Y-125885714D01*
X169100000Y-125838095D01*
X169076190Y-125742857D01*
X169076190Y-125504761D01*
X169100000Y-125361904D01*
X169576190Y-124933333D02*
X169076190Y-124933333D01*
X169076190Y-124552380D01*
X169100000Y-124457142D01*
X169123809Y-124409523D01*
X169171428Y-124361904D01*
X169242857Y-124361904D01*
X169290476Y-124409523D01*
X169314285Y-124457142D01*
X169338095Y-124552380D01*
X169338095Y-124933333D01*
X169576190Y-123933333D02*
X169076190Y-123933333D01*
X179464285Y-129523809D02*
X179464285Y-129190476D01*
X179726190Y-129047619D02*
X179726190Y-129523809D01*
X179226190Y-129523809D01*
X179226190Y-129047619D01*
X179726190Y-128619047D02*
X179226190Y-128619047D01*
X179726190Y-128047619D01*
X179226190Y-128047619D01*
X179678571Y-127000000D02*
X179702380Y-127047619D01*
X179726190Y-127190476D01*
X179726190Y-127285714D01*
X179702380Y-127428571D01*
X179654761Y-127523809D01*
X179607142Y-127571428D01*
X179511904Y-127619047D01*
X179440476Y-127619047D01*
X179345238Y-127571428D01*
X179297619Y-127523809D01*
X179250000Y-127428571D01*
X179226190Y-127285714D01*
X179226190Y-127190476D01*
X179250000Y-127047619D01*
X179273809Y-127000000D01*
X179202380Y-125857142D02*
X179845238Y-126714285D01*
X179726190Y-125523809D02*
X179226190Y-125523809D01*
X179464285Y-125523809D02*
X179464285Y-124952380D01*
X179726190Y-124952380D02*
X179226190Y-124952380D01*
X179583333Y-124523809D02*
X179583333Y-124047619D01*
X179726190Y-124619047D02*
X179226190Y-124285714D01*
X179726190Y-123952380D01*
X179726190Y-123142857D02*
X179726190Y-123619047D01*
X179226190Y-123619047D01*
X179726190Y-122333333D02*
X179726190Y-122809523D01*
X179226190Y-122809523D01*
X198064285Y-121764174D02*
X198064285Y-122097507D01*
X198326190Y-122130245D02*
X197826190Y-122067745D01*
X197826190Y-121591555D01*
X198064285Y-121240364D02*
X198064285Y-120907031D01*
X198326190Y-120796912D02*
X198326190Y-121273102D01*
X197826190Y-121210602D01*
X197826190Y-120734412D01*
X198326190Y-119796912D02*
X198088095Y-120100483D01*
X198326190Y-120368340D02*
X197826190Y-120305840D01*
X197826190Y-119924888D01*
X197850000Y-119832626D01*
X197873809Y-119787983D01*
X197921428Y-119746316D01*
X197992857Y-119755245D01*
X198040476Y-119808816D01*
X198064285Y-119859412D01*
X198088095Y-119957626D01*
X198088095Y-120338578D01*
X198373809Y-119612388D02*
X198373809Y-118850483D01*
X198064285Y-118573697D02*
X198064285Y-118240364D01*
X198326190Y-118130245D02*
X198326190Y-118606436D01*
X197826190Y-118543936D01*
X197826190Y-118067745D01*
X198302380Y-117746316D02*
X198326190Y-117606436D01*
X198326190Y-117368340D01*
X198302380Y-117270126D01*
X198278571Y-117219531D01*
X198230952Y-117165959D01*
X198183333Y-117160007D01*
X198135714Y-117201674D01*
X198111904Y-117246316D01*
X198088095Y-117338578D01*
X198064285Y-117526078D01*
X198040476Y-117618340D01*
X198016666Y-117662983D01*
X197969047Y-117704650D01*
X197921428Y-117698697D01*
X197873809Y-117645126D01*
X197850000Y-117594531D01*
X197826190Y-117496316D01*
X197826190Y-117258221D01*
X197850000Y-117118340D01*
X198278571Y-116171912D02*
X198302380Y-116222507D01*
X198326190Y-116368340D01*
X198326190Y-116463578D01*
X198302380Y-116603459D01*
X198254761Y-116692745D01*
X198207142Y-116734412D01*
X198111904Y-116770126D01*
X198040476Y-116761197D01*
X197945238Y-116701674D01*
X197897619Y-116648102D01*
X197850000Y-116546912D01*
X197826190Y-116401078D01*
X197826190Y-116305840D01*
X197850000Y-116165959D01*
X197873809Y-116121316D01*
X198373809Y-115993340D02*
X198373809Y-115231436D01*
X197992857Y-115040959D02*
X198326190Y-114844531D01*
X197992857Y-114564769D01*
X197873809Y-114216555D02*
X197850000Y-114165959D01*
X197826190Y-114067745D01*
X197826190Y-113829650D01*
X197850000Y-113737388D01*
X197873809Y-113692745D01*
X197921428Y-113651078D01*
X197969047Y-113657031D01*
X198040476Y-113713578D01*
X198326190Y-114320721D01*
X198326190Y-113701674D01*
X198326190Y-113273102D02*
X197992857Y-113231436D01*
X198088095Y-113243340D02*
X198040476Y-113189769D01*
X198016666Y-113139174D01*
X197992857Y-113040959D01*
X197992857Y-112945721D01*
X198326190Y-112130245D02*
X198326190Y-112701674D01*
X198326190Y-112415959D02*
X197826190Y-112353459D01*
X197897619Y-112457626D01*
X197945238Y-112558816D01*
X197969047Y-112657031D01*
D12*
X128340000Y-110300000D02*
X128340000Y-104290000D01*
X135160000Y-108050000D02*
X135160000Y-104290000D01*
X128340000Y-104290000D02*
X129600000Y-104290000D01*
X135160000Y-104290000D02*
X133900000Y-104290000D01*
X124037221Y-134210000D02*
X124362779Y-134210000D01*
X124037221Y-133190000D02*
X124362779Y-133190000D01*
X125815000Y-134385000D02*
X128300000Y-134385000D01*
X125815000Y-133015000D02*
X125815000Y-134385000D01*
X128300000Y-133015000D02*
X125815000Y-133015000D01*
X125910000Y-123510000D02*
X127200000Y-123510000D01*
X111690000Y-109990000D02*
X111690000Y-110690000D01*
X112390000Y-109990000D02*
X111690000Y-109990000D01*
X125910000Y-109990000D02*
X125910000Y-110690000D01*
X125210000Y-109990000D02*
X125910000Y-109990000D01*
X111690000Y-124210000D02*
X111690000Y-123510000D01*
X112390000Y-124210000D02*
X111690000Y-124210000D01*
X125910000Y-124210000D02*
X125910000Y-123510000D01*
X125210000Y-124210000D02*
X125910000Y-124210000D01*
X119897936Y-83060000D02*
X121102064Y-83060000D01*
X119897936Y-81240000D02*
X121102064Y-81240000D01*
X196825000Y-114385000D02*
X196825000Y-113135000D01*
X197450000Y-113760000D02*
X196200000Y-113760000D01*
X195960000Y-106704437D02*
X194895563Y-105640000D01*
X195960000Y-115295563D02*
X194895563Y-116360000D01*
X195960000Y-115295563D02*
X195960000Y-112510000D01*
X195960000Y-106704437D02*
X195960000Y-109490000D01*
X194895563Y-105640000D02*
X185240000Y-105640000D01*
X194895563Y-116360000D02*
X185240000Y-116360000D01*
X185240000Y-116360000D02*
X185240000Y-112510000D01*
X185240000Y-105640000D02*
X185240000Y-109490000D01*
X121330000Y-132670000D02*
X121330000Y-134000000D01*
X120000000Y-132670000D02*
X121330000Y-132670000D01*
X118730000Y-132670000D02*
X118730000Y-135330000D01*
X118730000Y-135330000D02*
X111050000Y-135330000D01*
X118730000Y-132670000D02*
X111050000Y-132670000D01*
X111050000Y-132670000D02*
X111050000Y-135330000D01*
X122760000Y-106262779D02*
X122760000Y-105937221D01*
X121740000Y-106262779D02*
X121740000Y-105937221D01*
X139434264Y-127200000D02*
X139010000Y-127500000D01*
X139434264Y-127800000D02*
X139434264Y-127200000D01*
X139010000Y-127500000D02*
X139434264Y-127800000D01*
X132750000Y-128860000D02*
X132750000Y-129310000D01*
X133050000Y-128860000D02*
X132750000Y-128860000D01*
X133050000Y-129310000D02*
X133050000Y-128860000D01*
X132750000Y-129310000D02*
X133050000Y-129310000D01*
X135250000Y-128860000D02*
X135250000Y-129310000D01*
X135550000Y-128860000D02*
X135250000Y-128860000D01*
X135550000Y-129310000D02*
X135550000Y-128860000D01*
X135250000Y-129310000D02*
X135550000Y-129310000D01*
X137750000Y-128860000D02*
X137750000Y-129310000D01*
X138050000Y-128860000D02*
X137750000Y-128860000D01*
X138050000Y-129310000D02*
X138050000Y-128860000D01*
X137750000Y-129310000D02*
X138050000Y-129310000D01*
X139730000Y-137990000D02*
X139730000Y-129310000D01*
X131070000Y-137990000D02*
X139730000Y-137990000D01*
X131070000Y-129310000D02*
X131070000Y-137990000D01*
X139730000Y-129310000D02*
X131070000Y-129310000D01*
X156458578Y-104390000D02*
X155941422Y-104390000D01*
X156458578Y-105810000D02*
X155941422Y-105810000D01*
X101230000Y-115630000D02*
X101530000Y-115630000D01*
X104370000Y-119770000D02*
X104070000Y-119770000D01*
X101530000Y-119770000D02*
X101230000Y-119770000D01*
X104370000Y-115630000D02*
X104370000Y-119770000D01*
X104070000Y-115630000D02*
X104370000Y-115630000D01*
X101230000Y-119770000D02*
X101230000Y-115630000D01*
X153337221Y-125410000D02*
X153662779Y-125410000D01*
X153337221Y-124390000D02*
X153662779Y-124390000D01*
X128390000Y-119900000D02*
X128390000Y-113890000D01*
X135210000Y-117650000D02*
X135210000Y-113890000D01*
X128390000Y-113890000D02*
X129650000Y-113890000D01*
X135210000Y-113890000D02*
X133950000Y-113890000D01*
X174600000Y-114465000D02*
X171150000Y-114465000D01*
X174600000Y-114465000D02*
X176550000Y-114465000D01*
X174600000Y-123335000D02*
X172650000Y-123335000D01*
X174600000Y-123335000D02*
X176550000Y-123335000D01*
X178534264Y-124700000D02*
X178110000Y-125000000D01*
X178534264Y-125300000D02*
X178534264Y-124700000D01*
X178110000Y-125000000D02*
X178534264Y-125300000D01*
X171850000Y-128610000D02*
X171850000Y-129310000D01*
X172150000Y-128610000D02*
X171850000Y-128610000D01*
X172150000Y-129310000D02*
X172150000Y-128610000D01*
X171850000Y-129310000D02*
X172150000Y-129310000D01*
X174350000Y-128610000D02*
X174350000Y-129310000D01*
X174650000Y-128610000D02*
X174350000Y-128610000D01*
X174650000Y-129310000D02*
X174650000Y-128610000D01*
X174350000Y-129310000D02*
X174650000Y-129310000D01*
X176850000Y-128610000D02*
X176850000Y-129310000D01*
X177150000Y-128610000D02*
X176850000Y-128610000D01*
X177150000Y-129310000D02*
X177150000Y-128610000D01*
X176850000Y-129310000D02*
X177150000Y-129310000D01*
X178830000Y-137990000D02*
X178830000Y-129310000D01*
X170170000Y-137990000D02*
X178830000Y-137990000D01*
X170170000Y-129310000D02*
X170170000Y-137990000D01*
X178830000Y-129310000D02*
X170170000Y-129310000D01*
X158534264Y-127200000D02*
X158110000Y-127500000D01*
X158534264Y-127800000D02*
X158534264Y-127200000D01*
X158110000Y-127500000D02*
X158534264Y-127800000D01*
X151850000Y-128860000D02*
X151850000Y-129310000D01*
X152150000Y-128860000D02*
X151850000Y-128860000D01*
X152150000Y-129310000D02*
X152150000Y-128860000D01*
X151850000Y-129310000D02*
X152150000Y-129310000D01*
X154350000Y-128860000D02*
X154350000Y-129310000D01*
X154650000Y-128860000D02*
X154350000Y-128860000D01*
X154650000Y-129310000D02*
X154650000Y-128860000D01*
X154350000Y-129310000D02*
X154650000Y-129310000D01*
X156850000Y-128860000D02*
X156850000Y-129310000D01*
X157150000Y-128860000D02*
X156850000Y-128860000D01*
X157150000Y-129310000D02*
X157150000Y-128860000D01*
X156850000Y-129310000D02*
X157150000Y-129310000D01*
X158830000Y-137990000D02*
X158830000Y-129310000D01*
X150170000Y-137990000D02*
X158830000Y-137990000D01*
X150170000Y-129310000D02*
X150170000Y-137990000D01*
X158830000Y-129310000D02*
X150170000Y-129310000D01*
X196825000Y-125685000D02*
X196825000Y-124435000D01*
X197450000Y-125060000D02*
X196200000Y-125060000D01*
X195960000Y-118004437D02*
X194895563Y-116940000D01*
X195960000Y-126595563D02*
X194895563Y-127660000D01*
X195960000Y-126595563D02*
X195960000Y-123810000D01*
X195960000Y-118004437D02*
X195960000Y-120790000D01*
X194895563Y-116940000D02*
X185240000Y-116940000D01*
X194895563Y-127660000D02*
X185240000Y-127660000D01*
X185240000Y-127660000D02*
X185240000Y-123810000D01*
X185240000Y-116940000D02*
X185240000Y-120790000D01*
X178385000Y-85775000D02*
X177135000Y-85775000D01*
X177760000Y-85150000D02*
X177760000Y-86400000D01*
X170704437Y-86640000D02*
X169640000Y-87704437D01*
X179295563Y-86640000D02*
X180360000Y-87704437D01*
X179295563Y-86640000D02*
X176510000Y-86640000D01*
X170704437Y-86640000D02*
X173490000Y-86640000D01*
X169640000Y-87704437D02*
X169640000Y-97360000D01*
X180360000Y-87704437D02*
X180360000Y-97360000D01*
X180360000Y-97360000D02*
X176510000Y-97360000D01*
X169640000Y-97360000D02*
X173490000Y-97360000D01*
X154615000Y-98225000D02*
X155865000Y-98225000D01*
X155240000Y-98850000D02*
X155240000Y-97600000D01*
X162295563Y-97360000D02*
X163360000Y-96295563D01*
X153704437Y-97360000D02*
X152640000Y-96295563D01*
X153704437Y-97360000D02*
X156490000Y-97360000D01*
X162295563Y-97360000D02*
X159510000Y-97360000D01*
X163360000Y-96295563D02*
X163360000Y-86640000D01*
X152640000Y-96295563D02*
X152640000Y-86640000D01*
X152640000Y-86640000D02*
X156490000Y-86640000D01*
X163360000Y-86640000D02*
X159510000Y-86640000D01*
X116885000Y-85775000D02*
X115635000Y-85775000D01*
X116260000Y-85150000D02*
X116260000Y-86400000D01*
X109204437Y-86640000D02*
X108140000Y-87704437D01*
X117795563Y-86640000D02*
X118860000Y-87704437D01*
X117795563Y-86640000D02*
X115010000Y-86640000D01*
X109204437Y-86640000D02*
X111990000Y-86640000D01*
X108140000Y-87704437D02*
X108140000Y-97360000D01*
X118860000Y-87704437D02*
X118860000Y-97360000D01*
X118860000Y-97360000D02*
X115010000Y-97360000D01*
X108140000Y-97360000D02*
X111990000Y-97360000D01*
X124115000Y-98225000D02*
X125365000Y-98225000D01*
X124740000Y-98850000D02*
X124740000Y-97600000D01*
X131795563Y-97360000D02*
X132860000Y-96295563D01*
X123204437Y-97360000D02*
X122140000Y-96295563D01*
X123204437Y-97360000D02*
X125990000Y-97360000D01*
X131795563Y-97360000D02*
X129010000Y-97360000D01*
X132860000Y-96295563D02*
X132860000Y-86640000D01*
X122140000Y-96295563D02*
X122140000Y-86640000D01*
X122140000Y-86640000D02*
X125990000Y-86640000D01*
X132860000Y-86640000D02*
X129010000Y-86640000D01*
X185615000Y-98225000D02*
X186865000Y-98225000D01*
X186240000Y-98850000D02*
X186240000Y-97600000D01*
X193295563Y-97360000D02*
X194360000Y-96295563D01*
X184704437Y-97360000D02*
X183640000Y-96295563D01*
X184704437Y-97360000D02*
X187490000Y-97360000D01*
X193295563Y-97360000D02*
X190510000Y-97360000D01*
X194360000Y-96295563D02*
X194360000Y-86640000D01*
X183640000Y-96295563D02*
X183640000Y-86640000D01*
X183640000Y-86640000D02*
X187490000Y-86640000D01*
X194360000Y-86640000D02*
X190510000Y-86640000D01*
X147385000Y-85775000D02*
X146135000Y-85775000D01*
X146760000Y-85150000D02*
X146760000Y-86400000D01*
X139704437Y-86640000D02*
X138640000Y-87704437D01*
X148295563Y-86640000D02*
X149360000Y-87704437D01*
X148295563Y-86640000D02*
X145510000Y-86640000D01*
X139704437Y-86640000D02*
X142490000Y-86640000D01*
X138640000Y-87704437D02*
X138640000Y-97360000D01*
X149360000Y-87704437D02*
X149360000Y-97360000D01*
X149360000Y-97360000D02*
X145510000Y-97360000D01*
X138640000Y-97360000D02*
X142490000Y-97360000D01*
D13*
X161425000Y-118350000D02*
X160075000Y-118350000D01*
X161425000Y-123475000D02*
X166075000Y-123475000D01*
X161425000Y-118225000D02*
X166075000Y-118225000D01*
X161425000Y-123475000D02*
X161425000Y-123250000D01*
X166075000Y-123475000D02*
X166075000Y-123250000D01*
X166075000Y-118225000D02*
X166075000Y-118450000D01*
X161425000Y-118225000D02*
X161425000Y-118350000D01*
D12*
X168534264Y-124700000D02*
X168110000Y-125000000D01*
X168534264Y-125300000D02*
X168534264Y-124700000D01*
X168110000Y-125000000D02*
X168534264Y-125300000D01*
X161850000Y-128610000D02*
X161850000Y-129310000D01*
X162150000Y-128610000D02*
X161850000Y-128610000D01*
X162150000Y-129310000D02*
X162150000Y-128610000D01*
X161850000Y-129310000D02*
X162150000Y-129310000D01*
X164350000Y-128610000D02*
X164350000Y-129310000D01*
X164650000Y-128610000D02*
X164350000Y-128610000D01*
X164650000Y-129310000D02*
X164650000Y-128610000D01*
X164350000Y-129310000D02*
X164650000Y-129310000D01*
X166850000Y-128610000D02*
X166850000Y-129310000D01*
X167150000Y-128610000D02*
X166850000Y-128610000D01*
X167150000Y-129310000D02*
X167150000Y-128610000D01*
X166850000Y-129310000D02*
X167150000Y-129310000D01*
X168830000Y-137990000D02*
X168830000Y-129310000D01*
X160170000Y-137990000D02*
X168830000Y-137990000D01*
X160170000Y-129310000D02*
X160170000Y-137990000D01*
X168830000Y-129310000D02*
X160170000Y-129310000D01*
X101670000Y-99920000D02*
X103000000Y-99920000D01*
X101670000Y-101250000D02*
X101670000Y-99920000D01*
X104270000Y-99920000D02*
X106870000Y-99920000D01*
X104270000Y-102520000D02*
X104270000Y-99920000D01*
X101670000Y-102520000D02*
X104270000Y-102520000D01*
X106870000Y-99920000D02*
X106870000Y-112740000D01*
X101670000Y-102520000D02*
X101670000Y-112740000D01*
X101670000Y-112740000D02*
X106870000Y-112740000D01*
X181962779Y-103990000D02*
X181637221Y-103990000D01*
X181962779Y-105010000D02*
X181637221Y-105010000D01*
X115810000Y-106262779D02*
X115810000Y-105937221D01*
X114790000Y-106262779D02*
X114790000Y-105937221D01*
X131441422Y-86210000D02*
X131958578Y-86210000D01*
X131441422Y-84790000D02*
X131958578Y-84790000D01*
X110208578Y-69190000D02*
X109691422Y-69190000D01*
X110208578Y-70610000D02*
X109691422Y-70610000D01*
X120910000Y-106262779D02*
X120910000Y-105937221D01*
X119890000Y-106262779D02*
X119890000Y-105937221D01*
X161903922Y-86210000D02*
X162421078Y-86210000D01*
X161903922Y-84790000D02*
X162421078Y-84790000D01*
X140946078Y-68990000D02*
X140428922Y-68990000D01*
X140946078Y-70410000D02*
X140428922Y-70410000D01*
X126210000Y-106262779D02*
X126210000Y-105937221D01*
X125190000Y-106262779D02*
X125190000Y-105937221D01*
X108910000Y-102275279D02*
X108910000Y-101949721D01*
X107890000Y-102275279D02*
X107890000Y-101949721D01*
X108910000Y-99262779D02*
X108910000Y-98937221D01*
X107890000Y-99262779D02*
X107890000Y-98937221D01*
X112310000Y-106262779D02*
X112310000Y-105937221D01*
X111290000Y-106262779D02*
X111290000Y-105937221D01*
X192741422Y-86260000D02*
X193258578Y-86260000D01*
X192741422Y-84840000D02*
X193258578Y-84840000D01*
X171808578Y-69090000D02*
X171291422Y-69090000D01*
X171808578Y-70510000D02*
X171291422Y-70510000D01*
X179200000Y-109800000D02*
X175200000Y-109800000D01*
X179200000Y-105600000D02*
X175200000Y-105600000D01*
X145615000Y-125685000D02*
X148100000Y-125685000D01*
X145615000Y-124315000D02*
X145615000Y-125685000D01*
X148100000Y-124315000D02*
X145615000Y-124315000D01*
X145385000Y-124315000D02*
X142900000Y-124315000D01*
X145385000Y-125685000D02*
X145385000Y-124315000D01*
X142900000Y-125685000D02*
X145385000Y-125685000D01*
X140527500Y-109985000D02*
X143012500Y-109985000D01*
X140527500Y-108615000D02*
X140527500Y-109985000D01*
X143012500Y-108615000D02*
X140527500Y-108615000D01*
X171015000Y-108785000D02*
X173500000Y-108785000D01*
X171015000Y-107415000D02*
X171015000Y-108785000D01*
X173500000Y-107415000D02*
X171015000Y-107415000D01*
X104630000Y-124020000D02*
X105900000Y-124020000D01*
X104630000Y-116180000D02*
X105900000Y-116180000D01*
X104630000Y-116180000D02*
X104630000Y-124020000D01*
X108970000Y-124020000D02*
X107700000Y-124020000D01*
X108970000Y-116180000D02*
X107700000Y-116180000D01*
X108970000Y-116180000D02*
X108970000Y-124020000D01*
X180190000Y-106920000D02*
X180190000Y-109350000D01*
X183260000Y-108680000D02*
X183260000Y-106920000D01*
X147990000Y-127037221D02*
X147990000Y-127362779D01*
X149010000Y-127037221D02*
X149010000Y-127362779D01*
X142090000Y-127037221D02*
X142090000Y-127362779D01*
X143110000Y-127037221D02*
X143110000Y-127362779D01*
X144240000Y-127037221D02*
X144240000Y-127362779D01*
X145260000Y-127037221D02*
X145260000Y-127362779D01*
X145740000Y-127037221D02*
X145740000Y-127362779D01*
X146760000Y-127037221D02*
X146760000Y-127362779D01*
X138737221Y-109810000D02*
X139062779Y-109810000D01*
X138737221Y-108790000D02*
X139062779Y-108790000D01*
X176240000Y-111937221D02*
X176240000Y-112262779D01*
X177260000Y-111937221D02*
X177260000Y-112262779D01*
X174760000Y-111937221D02*
X174760000Y-112262779D01*
X175780000Y-111937221D02*
X175780000Y-112262779D01*
X178540000Y-118737221D02*
X178540000Y-119062779D01*
X179560000Y-118737221D02*
X179560000Y-119062779D01*
X173290000Y-111937221D02*
X173290000Y-112262779D01*
X174310000Y-111937221D02*
X174310000Y-112262779D01*
X169640000Y-118687221D02*
X169640000Y-119012779D01*
X170660000Y-118687221D02*
X170660000Y-119012779D01*
X171830000Y-111937221D02*
X171830000Y-112262779D01*
X172850000Y-111937221D02*
X172850000Y-112262779D01*
X169640000Y-121837221D02*
X169640000Y-122162779D01*
X170660000Y-121837221D02*
X170660000Y-122162779D01*
X145990000Y-109937221D02*
X145990000Y-110262779D01*
X147010000Y-109937221D02*
X147010000Y-110262779D01*
X144225000Y-130335000D02*
X143825000Y-129885000D01*
X143825000Y-129885000D02*
X144625000Y-129885000D01*
X144625000Y-129885000D02*
X144225000Y-130335000D01*
X149375000Y-135935000D02*
X149375000Y-133135000D01*
X149375000Y-133135000D02*
X149675000Y-133135000D01*
X149675000Y-133135000D02*
X149675000Y-131585000D01*
X141675000Y-135935000D02*
X141675000Y-133135000D01*
X141375000Y-133135000D02*
X141675000Y-133135000D01*
X141375000Y-133135000D02*
X141375000Y-131585000D01*
X179950000Y-105300000D02*
X176050000Y-105300000D01*
X179950000Y-103300000D02*
X176050000Y-103300000D01*
X179950000Y-105300000D02*
X179950000Y-103300000D01*
X141610000Y-127012779D02*
X141610000Y-126687221D01*
X140590000Y-127012779D02*
X140590000Y-126687221D01*
X146837221Y-129960000D02*
X147162779Y-129960000D01*
X146837221Y-128940000D02*
X147162779Y-128940000D01*
X144162779Y-128940000D02*
X143837221Y-128940000D01*
X144162779Y-129960000D02*
X143837221Y-129960000D01*
X172441422Y-105210000D02*
X172958578Y-105210000D01*
X172441422Y-103790000D02*
X172958578Y-103790000D01*
X180262779Y-110290000D02*
X179937221Y-110290000D01*
X180262779Y-111310000D02*
X179937221Y-111310000D01*
X155290000Y-109937221D02*
X155290000Y-110262779D01*
X156310000Y-109937221D02*
X156310000Y-110262779D01*
X151610000Y-109862779D02*
X151610000Y-109537221D01*
X150590000Y-109862779D02*
X150590000Y-109537221D01*
X156458578Y-106290000D02*
X155941422Y-106290000D01*
X156458578Y-107710000D02*
X155941422Y-107710000D01*
X117660000Y-106262779D02*
X117660000Y-105937221D01*
X116640000Y-106262779D02*
X116640000Y-105937221D01*
X140410000Y-105958578D02*
X140410000Y-105441422D01*
X138990000Y-105958578D02*
X138990000Y-105441422D01*
X127860000Y-106262779D02*
X127860000Y-105937221D01*
X126840000Y-106262779D02*
X126840000Y-105937221D01*
X114110000Y-106262779D02*
X114110000Y-105937221D01*
X113090000Y-106262779D02*
X113090000Y-105937221D01*
X119210000Y-106262779D02*
X119210000Y-105937221D01*
X118190000Y-106262779D02*
X118190000Y-105937221D01*
X181297936Y-83060000D02*
X182502064Y-83060000D01*
X181297936Y-81240000D02*
X182502064Y-81240000D01*
X150297936Y-83060000D02*
X151502064Y-83060000D01*
X150297936Y-81240000D02*
X151502064Y-81240000D01*
X124510000Y-106262779D02*
X124510000Y-105937221D01*
X123490000Y-106262779D02*
X123490000Y-105937221D01*
X190702064Y-130240000D02*
X189497936Y-130240000D01*
X190702064Y-132960000D02*
X189497936Y-132960000D01*
X181297936Y-86260000D02*
X182502064Y-86260000D01*
X181297936Y-83540000D02*
X182502064Y-83540000D01*
X150297936Y-86260000D02*
X151502064Y-86260000D01*
X150297936Y-83540000D02*
X151502064Y-83540000D01*
X119897936Y-86260000D02*
X121102064Y-86260000D01*
X119897936Y-83540000D02*
X121102064Y-83540000D01*
X110610000Y-106262779D02*
X110610000Y-105937221D01*
X109590000Y-106262779D02*
X109590000Y-105937221D01*
D10*
X128038095Y-102426190D02*
X128038095Y-102830952D01*
X128085714Y-102878571D01*
X128133333Y-102902380D01*
X128228571Y-102926190D01*
X128419047Y-102926190D01*
X128514285Y-102902380D01*
X128561904Y-102878571D01*
X128609523Y-102830952D01*
X128609523Y-102426190D01*
X129038095Y-102473809D02*
X129085714Y-102450000D01*
X129180952Y-102426190D01*
X129419047Y-102426190D01*
X129514285Y-102450000D01*
X129561904Y-102473809D01*
X129609523Y-102521428D01*
X129609523Y-102569047D01*
X129561904Y-102640476D01*
X128990476Y-102926190D01*
X129609523Y-102926190D01*
X123557142Y-132726190D02*
X123223809Y-132488095D01*
X122985714Y-132726190D02*
X122985714Y-132226190D01*
X123366666Y-132226190D01*
X123461904Y-132250000D01*
X123509523Y-132273809D01*
X123557142Y-132321428D01*
X123557142Y-132392857D01*
X123509523Y-132440476D01*
X123461904Y-132464285D01*
X123366666Y-132488095D01*
X122985714Y-132488095D01*
X123890476Y-132226190D02*
X124557142Y-132226190D01*
X124128571Y-132726190D01*
X125366666Y-132226190D02*
X125176190Y-132226190D01*
X125080952Y-132250000D01*
X125033333Y-132273809D01*
X124938095Y-132345238D01*
X124890476Y-132440476D01*
X124890476Y-132630952D01*
X124938095Y-132678571D01*
X124985714Y-132702380D01*
X125080952Y-132726190D01*
X125271428Y-132726190D01*
X125366666Y-132702380D01*
X125414285Y-132678571D01*
X125461904Y-132630952D01*
X125461904Y-132511904D01*
X125414285Y-132464285D01*
X125366666Y-132440476D01*
X125271428Y-132416666D01*
X125080952Y-132416666D01*
X124985714Y-132440476D01*
X124938095Y-132464285D01*
X124890476Y-132511904D01*
X126285714Y-132726190D02*
X126285714Y-132226190D01*
X126523809Y-132226190D01*
X126666666Y-132250000D01*
X126761904Y-132297619D01*
X126809523Y-132345238D01*
X126857142Y-132440476D01*
X126857142Y-132511904D01*
X126809523Y-132607142D01*
X126761904Y-132654761D01*
X126666666Y-132702380D01*
X126523809Y-132726190D01*
X126285714Y-132726190D01*
X127809523Y-132726190D02*
X127238095Y-132726190D01*
X127523809Y-132726190D02*
X127523809Y-132226190D01*
X127428571Y-132297619D01*
X127333333Y-132345238D01*
X127238095Y-132369047D01*
X128428571Y-132226190D02*
X128523809Y-132226190D01*
X128619047Y-132250000D01*
X128666666Y-132273809D01*
X128714285Y-132321428D01*
X128761904Y-132416666D01*
X128761904Y-132535714D01*
X128714285Y-132630952D01*
X128666666Y-132678571D01*
X128619047Y-132702380D01*
X128523809Y-132726190D01*
X128428571Y-132726190D01*
X128333333Y-132702380D01*
X128285714Y-132678571D01*
X128238095Y-132630952D01*
X128190476Y-132535714D01*
X128190476Y-132416666D01*
X128238095Y-132321428D01*
X128285714Y-132273809D01*
X128333333Y-132250000D01*
X128428571Y-132226190D01*
X126126190Y-126838095D02*
X126530952Y-126838095D01*
X126578571Y-126790476D01*
X126602380Y-126742857D01*
X126626190Y-126647619D01*
X126626190Y-126457142D01*
X126602380Y-126361904D01*
X126578571Y-126314285D01*
X126530952Y-126266666D01*
X126126190Y-126266666D01*
X126626190Y-125266666D02*
X126626190Y-125838095D01*
X126626190Y-125552380D02*
X126126190Y-125552380D01*
X126197619Y-125647619D01*
X126245238Y-125742857D01*
X126269047Y-125838095D01*
X126126190Y-124647619D02*
X126126190Y-124552380D01*
X126150000Y-124457142D01*
X126173809Y-124409523D01*
X126221428Y-124361904D01*
X126316666Y-124314285D01*
X126435714Y-124314285D01*
X126530952Y-124361904D01*
X126578571Y-124409523D01*
X126602380Y-124457142D01*
X126626190Y-124552380D01*
X126626190Y-124647619D01*
X126602380Y-124742857D01*
X126578571Y-124790476D01*
X126530952Y-124838095D01*
X126435714Y-124885714D01*
X126316666Y-124885714D01*
X126221428Y-124838095D01*
X126173809Y-124790476D01*
X126150000Y-124742857D01*
X126126190Y-124647619D01*
X119957142Y-79678571D02*
X119909523Y-79702380D01*
X119766666Y-79726190D01*
X119671428Y-79726190D01*
X119528571Y-79702380D01*
X119433333Y-79654761D01*
X119385714Y-79607142D01*
X119338095Y-79511904D01*
X119338095Y-79440476D01*
X119385714Y-79345238D01*
X119433333Y-79297619D01*
X119528571Y-79250000D01*
X119671428Y-79226190D01*
X119766666Y-79226190D01*
X119909523Y-79250000D01*
X119957142Y-79273809D01*
X120909523Y-79726190D02*
X120338095Y-79726190D01*
X120623809Y-79726190D02*
X120623809Y-79226190D01*
X120528571Y-79297619D01*
X120433333Y-79345238D01*
X120338095Y-79369047D01*
X121766666Y-79226190D02*
X121576190Y-79226190D01*
X121480952Y-79250000D01*
X121433333Y-79273809D01*
X121338095Y-79345238D01*
X121290476Y-79440476D01*
X121290476Y-79630952D01*
X121338095Y-79678571D01*
X121385714Y-79702380D01*
X121480952Y-79726190D01*
X121671428Y-79726190D01*
X121766666Y-79702380D01*
X121814285Y-79678571D01*
X121861904Y-79630952D01*
X121861904Y-79511904D01*
X121814285Y-79464285D01*
X121766666Y-79440476D01*
X121671428Y-79416666D01*
X121480952Y-79416666D01*
X121385714Y-79440476D01*
X121338095Y-79464285D01*
X121290476Y-79511904D01*
X183833333Y-116178571D02*
X183785714Y-116202380D01*
X183642857Y-116226190D01*
X183547619Y-116226190D01*
X183404761Y-116202380D01*
X183309523Y-116154761D01*
X183261904Y-116107142D01*
X183214285Y-116011904D01*
X183214285Y-115940476D01*
X183261904Y-115845238D01*
X183309523Y-115797619D01*
X183404761Y-115750000D01*
X183547619Y-115726190D01*
X183642857Y-115726190D01*
X183785714Y-115750000D01*
X183833333Y-115773809D01*
X184785714Y-116226190D02*
X184214285Y-116226190D01*
X184500000Y-116226190D02*
X184500000Y-115726190D01*
X184404761Y-115797619D01*
X184309523Y-115845238D01*
X184214285Y-115869047D01*
X109926190Y-134233333D02*
X110283333Y-134233333D01*
X110354761Y-134280952D01*
X110402380Y-134376190D01*
X110426190Y-134519047D01*
X110426190Y-134614285D01*
X109926190Y-133280952D02*
X109926190Y-133757142D01*
X110164285Y-133804761D01*
X110140476Y-133757142D01*
X110116666Y-133661904D01*
X110116666Y-133423809D01*
X110140476Y-133328571D01*
X110164285Y-133280952D01*
X110211904Y-133233333D01*
X110330952Y-133233333D01*
X110378571Y-133280952D01*
X110402380Y-133328571D01*
X110426190Y-133423809D01*
X110426190Y-133661904D01*
X110402380Y-133757142D01*
X110378571Y-133804761D01*
X122428571Y-103042857D02*
X122452380Y-103090476D01*
X122476190Y-103233333D01*
X122476190Y-103328571D01*
X122452380Y-103471428D01*
X122404761Y-103566666D01*
X122357142Y-103614285D01*
X122261904Y-103661904D01*
X122190476Y-103661904D01*
X122095238Y-103614285D01*
X122047619Y-103566666D01*
X122000000Y-103471428D01*
X121976190Y-103328571D01*
X121976190Y-103233333D01*
X122000000Y-103090476D01*
X122023809Y-103042857D01*
X121976190Y-102138095D02*
X121976190Y-102614285D01*
X122214285Y-102661904D01*
X122190476Y-102614285D01*
X122166666Y-102519047D01*
X122166666Y-102280952D01*
X122190476Y-102185714D01*
X122214285Y-102138095D01*
X122261904Y-102090476D01*
X122380952Y-102090476D01*
X122428571Y-102138095D01*
X122452380Y-102185714D01*
X122476190Y-102280952D01*
X122476190Y-102519047D01*
X122452380Y-102614285D01*
X122428571Y-102661904D01*
X122142857Y-101233333D02*
X122476190Y-101233333D01*
X121952380Y-101471428D02*
X122309523Y-101709523D01*
X122309523Y-101090476D01*
X130426190Y-134033333D02*
X130783333Y-134033333D01*
X130854761Y-134080952D01*
X130902380Y-134176190D01*
X130926190Y-134319047D01*
X130926190Y-134414285D01*
X130426190Y-133652380D02*
X130426190Y-132985714D01*
X130926190Y-133414285D01*
X158757142Y-104678571D02*
X158709523Y-104702380D01*
X158566666Y-104726190D01*
X158471428Y-104726190D01*
X158328571Y-104702380D01*
X158233333Y-104654761D01*
X158185714Y-104607142D01*
X158138095Y-104511904D01*
X158138095Y-104440476D01*
X158185714Y-104345238D01*
X158233333Y-104297619D01*
X158328571Y-104250000D01*
X158471428Y-104226190D01*
X158566666Y-104226190D01*
X158709523Y-104250000D01*
X158757142Y-104273809D01*
X159661904Y-104226190D02*
X159185714Y-104226190D01*
X159138095Y-104464285D01*
X159185714Y-104440476D01*
X159280952Y-104416666D01*
X159519047Y-104416666D01*
X159614285Y-104440476D01*
X159661904Y-104464285D01*
X159709523Y-104511904D01*
X159709523Y-104630952D01*
X159661904Y-104678571D01*
X159614285Y-104702380D01*
X159519047Y-104726190D01*
X159280952Y-104726190D01*
X159185714Y-104702380D01*
X159138095Y-104678571D01*
X160614285Y-104226190D02*
X160138095Y-104226190D01*
X160090476Y-104464285D01*
X160138095Y-104440476D01*
X160233333Y-104416666D01*
X160471428Y-104416666D01*
X160566666Y-104440476D01*
X160614285Y-104464285D01*
X160661904Y-104511904D01*
X160661904Y-104630952D01*
X160614285Y-104678571D01*
X160566666Y-104702380D01*
X160471428Y-104726190D01*
X160233333Y-104726190D01*
X160138095Y-104702380D01*
X160090476Y-104678571D01*
X101466666Y-114502380D02*
X101609523Y-114526190D01*
X101847619Y-114526190D01*
X101942857Y-114502380D01*
X101990476Y-114478571D01*
X102038095Y-114430952D01*
X102038095Y-114383333D01*
X101990476Y-114335714D01*
X101942857Y-114311904D01*
X101847619Y-114288095D01*
X101657142Y-114264285D01*
X101561904Y-114240476D01*
X101514285Y-114216666D01*
X101466666Y-114169047D01*
X101466666Y-114121428D01*
X101514285Y-114073809D01*
X101561904Y-114050000D01*
X101657142Y-114026190D01*
X101895238Y-114026190D01*
X102038095Y-114050000D01*
X102371428Y-114026190D02*
X102609523Y-114526190D01*
X102800000Y-114169047D01*
X102990476Y-114526190D01*
X103228571Y-114026190D01*
X104133333Y-114526190D02*
X103561904Y-114526190D01*
X103847619Y-114526190D02*
X103847619Y-114026190D01*
X103752380Y-114097619D01*
X103657142Y-114145238D01*
X103561904Y-114169047D01*
X152857142Y-123648571D02*
X152809523Y-123672380D01*
X152666666Y-123696190D01*
X152571428Y-123696190D01*
X152428571Y-123672380D01*
X152333333Y-123624761D01*
X152285714Y-123577142D01*
X152238095Y-123481904D01*
X152238095Y-123410476D01*
X152285714Y-123315238D01*
X152333333Y-123267619D01*
X152428571Y-123220000D01*
X152571428Y-123196190D01*
X152666666Y-123196190D01*
X152809523Y-123220000D01*
X152857142Y-123243809D01*
X153714285Y-123362857D02*
X153714285Y-123696190D01*
X153476190Y-123172380D02*
X153238095Y-123529523D01*
X153857142Y-123529523D01*
X154190476Y-123243809D02*
X154238095Y-123220000D01*
X154333333Y-123196190D01*
X154571428Y-123196190D01*
X154666666Y-123220000D01*
X154714285Y-123243809D01*
X154761904Y-123291428D01*
X154761904Y-123339047D01*
X154714285Y-123410476D01*
X154142857Y-123696190D01*
X154761904Y-123696190D01*
X127938095Y-112226190D02*
X127938095Y-112630952D01*
X127985714Y-112678571D01*
X128033333Y-112702380D01*
X128128571Y-112726190D01*
X128319047Y-112726190D01*
X128414285Y-112702380D01*
X128461904Y-112678571D01*
X128509523Y-112630952D01*
X128509523Y-112226190D01*
X128890476Y-112226190D02*
X129509523Y-112226190D01*
X129176190Y-112416666D01*
X129319047Y-112416666D01*
X129414285Y-112440476D01*
X129461904Y-112464285D01*
X129509523Y-112511904D01*
X129509523Y-112630952D01*
X129461904Y-112678571D01*
X129414285Y-112702380D01*
X129319047Y-112726190D01*
X129033333Y-112726190D01*
X128938095Y-112702380D01*
X128890476Y-112678571D01*
X178438095Y-114626190D02*
X178438095Y-115030952D01*
X178485714Y-115078571D01*
X178533333Y-115102380D01*
X178628571Y-115126190D01*
X178819047Y-115126190D01*
X178914285Y-115102380D01*
X178961904Y-115078571D01*
X179009523Y-115030952D01*
X179009523Y-114626190D01*
X179914285Y-114792857D02*
X179914285Y-115126190D01*
X179676190Y-114602380D02*
X179438095Y-114959523D01*
X180057142Y-114959523D01*
X169126190Y-134233333D02*
X169483333Y-134233333D01*
X169554761Y-134280952D01*
X169602380Y-134376190D01*
X169626190Y-134519047D01*
X169626190Y-134614285D01*
X169626190Y-133233333D02*
X169626190Y-133804761D01*
X169626190Y-133519047D02*
X169126190Y-133519047D01*
X169197619Y-133614285D01*
X169245238Y-133709523D01*
X169269047Y-133804761D01*
X149526190Y-134133333D02*
X149883333Y-134133333D01*
X149954761Y-134180952D01*
X150002380Y-134276190D01*
X150026190Y-134419047D01*
X150026190Y-134514285D01*
X149573809Y-133704761D02*
X149550000Y-133657142D01*
X149526190Y-133561904D01*
X149526190Y-133323809D01*
X149550000Y-133228571D01*
X149573809Y-133180952D01*
X149621428Y-133133333D01*
X149669047Y-133133333D01*
X149740476Y-133180952D01*
X150026190Y-133752380D01*
X150026190Y-133133333D01*
X183833333Y-117478571D02*
X183785714Y-117502380D01*
X183642857Y-117526190D01*
X183547619Y-117526190D01*
X183404761Y-117502380D01*
X183309523Y-117454761D01*
X183261904Y-117407142D01*
X183214285Y-117311904D01*
X183214285Y-117240476D01*
X183261904Y-117145238D01*
X183309523Y-117097619D01*
X183404761Y-117050000D01*
X183547619Y-117026190D01*
X183642857Y-117026190D01*
X183785714Y-117050000D01*
X183833333Y-117073809D01*
X184738095Y-117026190D02*
X184261904Y-117026190D01*
X184214285Y-117264285D01*
X184261904Y-117240476D01*
X184357142Y-117216666D01*
X184595238Y-117216666D01*
X184690476Y-117240476D01*
X184738095Y-117264285D01*
X184785714Y-117311904D01*
X184785714Y-117430952D01*
X184738095Y-117478571D01*
X184690476Y-117502380D01*
X184595238Y-117526190D01*
X184357142Y-117526190D01*
X184261904Y-117502380D01*
X184214285Y-117478571D01*
X181478571Y-92166666D02*
X181502380Y-92214285D01*
X181526190Y-92357142D01*
X181526190Y-92452380D01*
X181502380Y-92595238D01*
X181454761Y-92690476D01*
X181407142Y-92738095D01*
X181311904Y-92785714D01*
X181240476Y-92785714D01*
X181145238Y-92738095D01*
X181097619Y-92690476D01*
X181050000Y-92595238D01*
X181026190Y-92452380D01*
X181026190Y-92357142D01*
X181050000Y-92214285D01*
X181073809Y-92166666D01*
X181192857Y-91309523D02*
X181526190Y-91309523D01*
X181002380Y-91547619D02*
X181359523Y-91785714D01*
X181359523Y-91166666D01*
X151878571Y-92166666D02*
X151902380Y-92214285D01*
X151926190Y-92357142D01*
X151926190Y-92452380D01*
X151902380Y-92595238D01*
X151854761Y-92690476D01*
X151807142Y-92738095D01*
X151711904Y-92785714D01*
X151640476Y-92785714D01*
X151545238Y-92738095D01*
X151497619Y-92690476D01*
X151450000Y-92595238D01*
X151426190Y-92452380D01*
X151426190Y-92357142D01*
X151450000Y-92214285D01*
X151473809Y-92166666D01*
X151426190Y-91833333D02*
X151426190Y-91214285D01*
X151616666Y-91547619D01*
X151616666Y-91404761D01*
X151640476Y-91309523D01*
X151664285Y-91261904D01*
X151711904Y-91214285D01*
X151830952Y-91214285D01*
X151878571Y-91261904D01*
X151902380Y-91309523D01*
X151926190Y-91404761D01*
X151926190Y-91690476D01*
X151902380Y-91785714D01*
X151878571Y-91833333D01*
X119978571Y-92166666D02*
X120002380Y-92214285D01*
X120026190Y-92357142D01*
X120026190Y-92452380D01*
X120002380Y-92595238D01*
X119954761Y-92690476D01*
X119907142Y-92738095D01*
X119811904Y-92785714D01*
X119740476Y-92785714D01*
X119645238Y-92738095D01*
X119597619Y-92690476D01*
X119550000Y-92595238D01*
X119526190Y-92452380D01*
X119526190Y-92357142D01*
X119550000Y-92214285D01*
X119573809Y-92166666D01*
X119573809Y-91785714D02*
X119550000Y-91738095D01*
X119526190Y-91642857D01*
X119526190Y-91404761D01*
X119550000Y-91309523D01*
X119573809Y-91261904D01*
X119621428Y-91214285D01*
X119669047Y-91214285D01*
X119740476Y-91261904D01*
X120026190Y-91833333D01*
X120026190Y-91214285D01*
X121378571Y-92166666D02*
X121402380Y-92214285D01*
X121426190Y-92357142D01*
X121426190Y-92452380D01*
X121402380Y-92595238D01*
X121354761Y-92690476D01*
X121307142Y-92738095D01*
X121211904Y-92785714D01*
X121140476Y-92785714D01*
X121045238Y-92738095D01*
X120997619Y-92690476D01*
X120950000Y-92595238D01*
X120926190Y-92452380D01*
X120926190Y-92357142D01*
X120950000Y-92214285D01*
X120973809Y-92166666D01*
X121426190Y-91690476D02*
X121426190Y-91500000D01*
X121402380Y-91404761D01*
X121378571Y-91357142D01*
X121307142Y-91261904D01*
X121211904Y-91214285D01*
X121021428Y-91214285D01*
X120973809Y-91261904D01*
X120950000Y-91309523D01*
X120926190Y-91404761D01*
X120926190Y-91595238D01*
X120950000Y-91690476D01*
X120973809Y-91738095D01*
X121021428Y-91785714D01*
X121140476Y-91785714D01*
X121188095Y-91738095D01*
X121211904Y-91690476D01*
X121235714Y-91595238D01*
X121235714Y-91404761D01*
X121211904Y-91309523D01*
X121188095Y-91261904D01*
X121140476Y-91214285D01*
X182878571Y-92166666D02*
X182902380Y-92214285D01*
X182926190Y-92357142D01*
X182926190Y-92452380D01*
X182902380Y-92595238D01*
X182854761Y-92690476D01*
X182807142Y-92738095D01*
X182711904Y-92785714D01*
X182640476Y-92785714D01*
X182545238Y-92738095D01*
X182497619Y-92690476D01*
X182450000Y-92595238D01*
X182426190Y-92452380D01*
X182426190Y-92357142D01*
X182450000Y-92214285D01*
X182473809Y-92166666D01*
X182640476Y-91595238D02*
X182616666Y-91690476D01*
X182592857Y-91738095D01*
X182545238Y-91785714D01*
X182521428Y-91785714D01*
X182473809Y-91738095D01*
X182450000Y-91690476D01*
X182426190Y-91595238D01*
X182426190Y-91404761D01*
X182450000Y-91309523D01*
X182473809Y-91261904D01*
X182521428Y-91214285D01*
X182545238Y-91214285D01*
X182592857Y-91261904D01*
X182616666Y-91309523D01*
X182640476Y-91404761D01*
X182640476Y-91595238D01*
X182664285Y-91690476D01*
X182688095Y-91738095D01*
X182735714Y-91785714D01*
X182830952Y-91785714D01*
X182878571Y-91738095D01*
X182902380Y-91690476D01*
X182926190Y-91595238D01*
X182926190Y-91404761D01*
X182902380Y-91309523D01*
X182878571Y-91261904D01*
X182830952Y-91214285D01*
X182735714Y-91214285D01*
X182688095Y-91261904D01*
X182664285Y-91309523D01*
X182640476Y-91404761D01*
X150478571Y-92166666D02*
X150502380Y-92214285D01*
X150526190Y-92357142D01*
X150526190Y-92452380D01*
X150502380Y-92595238D01*
X150454761Y-92690476D01*
X150407142Y-92738095D01*
X150311904Y-92785714D01*
X150240476Y-92785714D01*
X150145238Y-92738095D01*
X150097619Y-92690476D01*
X150050000Y-92595238D01*
X150026190Y-92452380D01*
X150026190Y-92357142D01*
X150050000Y-92214285D01*
X150073809Y-92166666D01*
X150026190Y-91833333D02*
X150026190Y-91166666D01*
X150526190Y-91595238D01*
X162988095Y-117026190D02*
X162988095Y-117430952D01*
X163035714Y-117478571D01*
X163083333Y-117502380D01*
X163178571Y-117526190D01*
X163369047Y-117526190D01*
X163464285Y-117502380D01*
X163511904Y-117478571D01*
X163559523Y-117430952D01*
X163559523Y-117026190D01*
X164178571Y-117240476D02*
X164083333Y-117216666D01*
X164035714Y-117192857D01*
X163988095Y-117145238D01*
X163988095Y-117121428D01*
X164035714Y-117073809D01*
X164083333Y-117050000D01*
X164178571Y-117026190D01*
X164369047Y-117026190D01*
X164464285Y-117050000D01*
X164511904Y-117073809D01*
X164559523Y-117121428D01*
X164559523Y-117145238D01*
X164511904Y-117192857D01*
X164464285Y-117216666D01*
X164369047Y-117240476D01*
X164178571Y-117240476D01*
X164083333Y-117264285D01*
X164035714Y-117288095D01*
X163988095Y-117335714D01*
X163988095Y-117430952D01*
X164035714Y-117478571D01*
X164083333Y-117502380D01*
X164178571Y-117526190D01*
X164369047Y-117526190D01*
X164464285Y-117502380D01*
X164511904Y-117478571D01*
X164559523Y-117430952D01*
X164559523Y-117335714D01*
X164511904Y-117288095D01*
X164464285Y-117264285D01*
X164369047Y-117240476D01*
X159226190Y-134233333D02*
X159583333Y-134233333D01*
X159654761Y-134280952D01*
X159702380Y-134376190D01*
X159726190Y-134519047D01*
X159726190Y-134614285D01*
X159392857Y-133328571D02*
X159726190Y-133328571D01*
X159202380Y-133566666D02*
X159559523Y-133804761D01*
X159559523Y-133185714D01*
X193926190Y-99261904D02*
X193426190Y-99261904D01*
X193664285Y-99261904D02*
X193664285Y-98690476D01*
X193926190Y-98690476D02*
X193426190Y-98690476D01*
X193592857Y-97785714D02*
X193926190Y-97785714D01*
X193402380Y-98023809D02*
X193759523Y-98261904D01*
X193759523Y-97642857D01*
X106438095Y-135126190D02*
X106438095Y-134626190D01*
X106438095Y-134864285D02*
X107009523Y-134864285D01*
X107009523Y-135126190D02*
X107009523Y-134626190D01*
X107390476Y-134626190D02*
X108009523Y-134626190D01*
X107676190Y-134816666D01*
X107819047Y-134816666D01*
X107914285Y-134840476D01*
X107961904Y-134864285D01*
X108009523Y-134911904D01*
X108009523Y-135030952D01*
X107961904Y-135078571D01*
X107914285Y-135102380D01*
X107819047Y-135126190D01*
X107533333Y-135126190D01*
X107438095Y-135102380D01*
X107390476Y-135078571D01*
X106938095Y-62126190D02*
X106938095Y-61626190D01*
X106938095Y-61864285D02*
X107509523Y-61864285D01*
X107509523Y-62126190D02*
X107509523Y-61626190D01*
X107938095Y-61673809D02*
X107985714Y-61650000D01*
X108080952Y-61626190D01*
X108319047Y-61626190D01*
X108414285Y-61650000D01*
X108461904Y-61673809D01*
X108509523Y-61721428D01*
X108509523Y-61769047D01*
X108461904Y-61840476D01*
X107890476Y-62126190D01*
X108509523Y-62126190D01*
X193938095Y-61826190D02*
X193938095Y-61326190D01*
X193938095Y-61564285D02*
X194509523Y-61564285D01*
X194509523Y-61826190D02*
X194509523Y-61326190D01*
X195509523Y-61826190D02*
X194938095Y-61826190D01*
X195223809Y-61826190D02*
X195223809Y-61326190D01*
X195128571Y-61397619D01*
X195033333Y-61445238D01*
X194938095Y-61469047D01*
X103936666Y-98646190D02*
X103936666Y-99003333D01*
X103889047Y-99074761D01*
X103793809Y-99122380D01*
X103650952Y-99146190D01*
X103555714Y-99146190D01*
X104841428Y-98646190D02*
X104650952Y-98646190D01*
X104555714Y-98670000D01*
X104508095Y-98693809D01*
X104412857Y-98765238D01*
X104365238Y-98860476D01*
X104365238Y-99050952D01*
X104412857Y-99098571D01*
X104460476Y-99122380D01*
X104555714Y-99146190D01*
X104746190Y-99146190D01*
X104841428Y-99122380D01*
X104889047Y-99098571D01*
X104936666Y-99050952D01*
X104936666Y-98931904D01*
X104889047Y-98884285D01*
X104841428Y-98860476D01*
X104746190Y-98836666D01*
X104555714Y-98836666D01*
X104460476Y-98860476D01*
X104412857Y-98884285D01*
X104365238Y-98931904D01*
X184057142Y-104726190D02*
X183723809Y-104488095D01*
X183485714Y-104726190D02*
X183485714Y-104226190D01*
X183866666Y-104226190D01*
X183961904Y-104250000D01*
X184009523Y-104273809D01*
X184057142Y-104321428D01*
X184057142Y-104392857D01*
X184009523Y-104440476D01*
X183961904Y-104464285D01*
X183866666Y-104488095D01*
X183485714Y-104488095D01*
X184390476Y-104226190D02*
X185009523Y-104226190D01*
X184676190Y-104416666D01*
X184819047Y-104416666D01*
X184914285Y-104440476D01*
X184961904Y-104464285D01*
X185009523Y-104511904D01*
X185009523Y-104630952D01*
X184961904Y-104678571D01*
X184914285Y-104702380D01*
X184819047Y-104726190D01*
X184533333Y-104726190D01*
X184438095Y-104702380D01*
X184390476Y-104678571D01*
X185961904Y-104726190D02*
X185390476Y-104726190D01*
X185676190Y-104726190D02*
X185676190Y-104226190D01*
X185580952Y-104297619D01*
X185485714Y-104345238D01*
X185390476Y-104369047D01*
X115526190Y-102942857D02*
X115288095Y-103276190D01*
X115526190Y-103514285D02*
X115026190Y-103514285D01*
X115026190Y-103133333D01*
X115050000Y-103038095D01*
X115073809Y-102990476D01*
X115121428Y-102942857D01*
X115192857Y-102942857D01*
X115240476Y-102990476D01*
X115264285Y-103038095D01*
X115288095Y-103133333D01*
X115288095Y-103514285D01*
X115073809Y-102561904D02*
X115050000Y-102514285D01*
X115026190Y-102419047D01*
X115026190Y-102180952D01*
X115050000Y-102085714D01*
X115073809Y-102038095D01*
X115121428Y-101990476D01*
X115169047Y-101990476D01*
X115240476Y-102038095D01*
X115526190Y-102609523D01*
X115526190Y-101990476D01*
X115026190Y-101133333D02*
X115026190Y-101323809D01*
X115050000Y-101419047D01*
X115073809Y-101466666D01*
X115145238Y-101561904D01*
X115240476Y-101609523D01*
X115430952Y-101609523D01*
X115478571Y-101561904D01*
X115502380Y-101514285D01*
X115526190Y-101419047D01*
X115526190Y-101228571D01*
X115502380Y-101133333D01*
X115478571Y-101085714D01*
X115430952Y-101038095D01*
X115311904Y-101038095D01*
X115264285Y-101085714D01*
X115240476Y-101133333D01*
X115216666Y-101228571D01*
X115216666Y-101419047D01*
X115240476Y-101514285D01*
X115264285Y-101561904D01*
X115311904Y-101609523D01*
X131057142Y-84426190D02*
X130723809Y-84188095D01*
X130485714Y-84426190D02*
X130485714Y-83926190D01*
X130866666Y-83926190D01*
X130961904Y-83950000D01*
X131009523Y-83973809D01*
X131057142Y-84021428D01*
X131057142Y-84092857D01*
X131009523Y-84140476D01*
X130961904Y-84164285D01*
X130866666Y-84188095D01*
X130485714Y-84188095D01*
X131438095Y-83973809D02*
X131485714Y-83950000D01*
X131580952Y-83926190D01*
X131819047Y-83926190D01*
X131914285Y-83950000D01*
X131961904Y-83973809D01*
X132009523Y-84021428D01*
X132009523Y-84069047D01*
X131961904Y-84140476D01*
X131390476Y-84426190D01*
X132009523Y-84426190D01*
X132914285Y-83926190D02*
X132438095Y-83926190D01*
X132390476Y-84164285D01*
X132438095Y-84140476D01*
X132533333Y-84116666D01*
X132771428Y-84116666D01*
X132866666Y-84140476D01*
X132914285Y-84164285D01*
X132961904Y-84211904D01*
X132961904Y-84330952D01*
X132914285Y-84378571D01*
X132866666Y-84402380D01*
X132771428Y-84426190D01*
X132533333Y-84426190D01*
X132438095Y-84402380D01*
X132390476Y-84378571D01*
X109307142Y-71776190D02*
X108973809Y-71538095D01*
X108735714Y-71776190D02*
X108735714Y-71276190D01*
X109116666Y-71276190D01*
X109211904Y-71300000D01*
X109259523Y-71323809D01*
X109307142Y-71371428D01*
X109307142Y-71442857D01*
X109259523Y-71490476D01*
X109211904Y-71514285D01*
X109116666Y-71538095D01*
X108735714Y-71538095D01*
X109688095Y-71323809D02*
X109735714Y-71300000D01*
X109830952Y-71276190D01*
X110069047Y-71276190D01*
X110164285Y-71300000D01*
X110211904Y-71323809D01*
X110259523Y-71371428D01*
X110259523Y-71419047D01*
X110211904Y-71490476D01*
X109640476Y-71776190D01*
X110259523Y-71776190D01*
X111116666Y-71442857D02*
X111116666Y-71776190D01*
X110878571Y-71252380D02*
X110640476Y-71609523D01*
X111259523Y-71609523D01*
X120626190Y-103042857D02*
X120388095Y-103376190D01*
X120626190Y-103614285D02*
X120126190Y-103614285D01*
X120126190Y-103233333D01*
X120150000Y-103138095D01*
X120173809Y-103090476D01*
X120221428Y-103042857D01*
X120292857Y-103042857D01*
X120340476Y-103090476D01*
X120364285Y-103138095D01*
X120388095Y-103233333D01*
X120388095Y-103614285D01*
X120626190Y-102090476D02*
X120626190Y-102661904D01*
X120626190Y-102376190D02*
X120126190Y-102376190D01*
X120197619Y-102471428D01*
X120245238Y-102566666D01*
X120269047Y-102661904D01*
X120626190Y-101614285D02*
X120626190Y-101423809D01*
X120602380Y-101328571D01*
X120578571Y-101280952D01*
X120507142Y-101185714D01*
X120411904Y-101138095D01*
X120221428Y-101138095D01*
X120173809Y-101185714D01*
X120150000Y-101233333D01*
X120126190Y-101328571D01*
X120126190Y-101519047D01*
X120150000Y-101614285D01*
X120173809Y-101661904D01*
X120221428Y-101709523D01*
X120340476Y-101709523D01*
X120388095Y-101661904D01*
X120411904Y-101614285D01*
X120435714Y-101519047D01*
X120435714Y-101328571D01*
X120411904Y-101233333D01*
X120388095Y-101185714D01*
X120340476Y-101138095D01*
X161657142Y-84326190D02*
X161323809Y-84088095D01*
X161085714Y-84326190D02*
X161085714Y-83826190D01*
X161466666Y-83826190D01*
X161561904Y-83850000D01*
X161609523Y-83873809D01*
X161657142Y-83921428D01*
X161657142Y-83992857D01*
X161609523Y-84040476D01*
X161561904Y-84064285D01*
X161466666Y-84088095D01*
X161085714Y-84088095D01*
X162609523Y-84326190D02*
X162038095Y-84326190D01*
X162323809Y-84326190D02*
X162323809Y-83826190D01*
X162228571Y-83897619D01*
X162133333Y-83945238D01*
X162038095Y-83969047D01*
X163466666Y-83992857D02*
X163466666Y-84326190D01*
X163228571Y-83802380D02*
X162990476Y-84159523D01*
X163609523Y-84159523D01*
X140044642Y-71576190D02*
X139711309Y-71338095D01*
X139473214Y-71576190D02*
X139473214Y-71076190D01*
X139854166Y-71076190D01*
X139949404Y-71100000D01*
X139997023Y-71123809D01*
X140044642Y-71171428D01*
X140044642Y-71242857D01*
X139997023Y-71290476D01*
X139949404Y-71314285D01*
X139854166Y-71338095D01*
X139473214Y-71338095D01*
X140997023Y-71576190D02*
X140425595Y-71576190D01*
X140711309Y-71576190D02*
X140711309Y-71076190D01*
X140616071Y-71147619D01*
X140520833Y-71195238D01*
X140425595Y-71219047D01*
X141330357Y-71076190D02*
X141949404Y-71076190D01*
X141616071Y-71266666D01*
X141758928Y-71266666D01*
X141854166Y-71290476D01*
X141901785Y-71314285D01*
X141949404Y-71361904D01*
X141949404Y-71480952D01*
X141901785Y-71528571D01*
X141854166Y-71552380D01*
X141758928Y-71576190D01*
X141473214Y-71576190D01*
X141377976Y-71552380D01*
X141330357Y-71528571D01*
X125826190Y-103042857D02*
X125588095Y-103376190D01*
X125826190Y-103614285D02*
X125326190Y-103614285D01*
X125326190Y-103233333D01*
X125350000Y-103138095D01*
X125373809Y-103090476D01*
X125421428Y-103042857D01*
X125492857Y-103042857D01*
X125540476Y-103090476D01*
X125564285Y-103138095D01*
X125588095Y-103233333D01*
X125588095Y-103614285D01*
X125826190Y-102090476D02*
X125826190Y-102661904D01*
X125826190Y-102376190D02*
X125326190Y-102376190D01*
X125397619Y-102471428D01*
X125445238Y-102566666D01*
X125469047Y-102661904D01*
X125373809Y-101709523D02*
X125350000Y-101661904D01*
X125326190Y-101566666D01*
X125326190Y-101328571D01*
X125350000Y-101233333D01*
X125373809Y-101185714D01*
X125421428Y-101138095D01*
X125469047Y-101138095D01*
X125540476Y-101185714D01*
X125826190Y-101757142D01*
X125826190Y-101138095D01*
X109833333Y-101126190D02*
X109500000Y-100888095D01*
X109261904Y-101126190D02*
X109261904Y-100626190D01*
X109642857Y-100626190D01*
X109738095Y-100650000D01*
X109785714Y-100673809D01*
X109833333Y-100721428D01*
X109833333Y-100792857D01*
X109785714Y-100840476D01*
X109738095Y-100864285D01*
X109642857Y-100888095D01*
X109261904Y-100888095D01*
X110309523Y-101126190D02*
X110500000Y-101126190D01*
X110595238Y-101102380D01*
X110642857Y-101078571D01*
X110738095Y-101007142D01*
X110785714Y-100911904D01*
X110785714Y-100721428D01*
X110738095Y-100673809D01*
X110690476Y-100650000D01*
X110595238Y-100626190D01*
X110404761Y-100626190D01*
X110309523Y-100650000D01*
X110261904Y-100673809D01*
X110214285Y-100721428D01*
X110214285Y-100840476D01*
X110261904Y-100888095D01*
X110309523Y-100911904D01*
X110404761Y-100935714D01*
X110595238Y-100935714D01*
X110690476Y-100911904D01*
X110738095Y-100888095D01*
X110785714Y-100840476D01*
X109933333Y-98326190D02*
X109600000Y-98088095D01*
X109361904Y-98326190D02*
X109361904Y-97826190D01*
X109742857Y-97826190D01*
X109838095Y-97850000D01*
X109885714Y-97873809D01*
X109933333Y-97921428D01*
X109933333Y-97992857D01*
X109885714Y-98040476D01*
X109838095Y-98064285D01*
X109742857Y-98088095D01*
X109361904Y-98088095D01*
X110504761Y-98040476D02*
X110409523Y-98016666D01*
X110361904Y-97992857D01*
X110314285Y-97945238D01*
X110314285Y-97921428D01*
X110361904Y-97873809D01*
X110409523Y-97850000D01*
X110504761Y-97826190D01*
X110695238Y-97826190D01*
X110790476Y-97850000D01*
X110838095Y-97873809D01*
X110885714Y-97921428D01*
X110885714Y-97945238D01*
X110838095Y-97992857D01*
X110790476Y-98016666D01*
X110695238Y-98040476D01*
X110504761Y-98040476D01*
X110409523Y-98064285D01*
X110361904Y-98088095D01*
X110314285Y-98135714D01*
X110314285Y-98230952D01*
X110361904Y-98278571D01*
X110409523Y-98302380D01*
X110504761Y-98326190D01*
X110695238Y-98326190D01*
X110790476Y-98302380D01*
X110838095Y-98278571D01*
X110885714Y-98230952D01*
X110885714Y-98135714D01*
X110838095Y-98088095D01*
X110790476Y-98064285D01*
X110695238Y-98040476D01*
X112126190Y-103016666D02*
X111888095Y-103350000D01*
X112126190Y-103588095D02*
X111626190Y-103588095D01*
X111626190Y-103207142D01*
X111650000Y-103111904D01*
X111673809Y-103064285D01*
X111721428Y-103016666D01*
X111792857Y-103016666D01*
X111840476Y-103064285D01*
X111864285Y-103111904D01*
X111888095Y-103207142D01*
X111888095Y-103588095D01*
X111626190Y-102111904D02*
X111626190Y-102588095D01*
X111864285Y-102635714D01*
X111840476Y-102588095D01*
X111816666Y-102492857D01*
X111816666Y-102254761D01*
X111840476Y-102159523D01*
X111864285Y-102111904D01*
X111911904Y-102064285D01*
X112030952Y-102064285D01*
X112078571Y-102111904D01*
X112102380Y-102159523D01*
X112126190Y-102254761D01*
X112126190Y-102492857D01*
X112102380Y-102588095D01*
X112078571Y-102635714D01*
X192833333Y-84426190D02*
X192500000Y-84188095D01*
X192261904Y-84426190D02*
X192261904Y-83926190D01*
X192642857Y-83926190D01*
X192738095Y-83950000D01*
X192785714Y-83973809D01*
X192833333Y-84021428D01*
X192833333Y-84092857D01*
X192785714Y-84140476D01*
X192738095Y-84164285D01*
X192642857Y-84188095D01*
X192261904Y-84188095D01*
X193690476Y-84092857D02*
X193690476Y-84426190D01*
X193452380Y-83902380D02*
X193214285Y-84259523D01*
X193833333Y-84259523D01*
X171383333Y-71676190D02*
X171050000Y-71438095D01*
X170811904Y-71676190D02*
X170811904Y-71176190D01*
X171192857Y-71176190D01*
X171288095Y-71200000D01*
X171335714Y-71223809D01*
X171383333Y-71271428D01*
X171383333Y-71342857D01*
X171335714Y-71390476D01*
X171288095Y-71414285D01*
X171192857Y-71438095D01*
X170811904Y-71438095D01*
X171716666Y-71176190D02*
X172335714Y-71176190D01*
X172002380Y-71366666D01*
X172145238Y-71366666D01*
X172240476Y-71390476D01*
X172288095Y-71414285D01*
X172335714Y-71461904D01*
X172335714Y-71580952D01*
X172288095Y-71628571D01*
X172240476Y-71652380D01*
X172145238Y-71676190D01*
X171859523Y-71676190D01*
X171764285Y-71652380D01*
X171716666Y-71628571D01*
X174233333Y-110526190D02*
X173757142Y-110526190D01*
X173757142Y-110026190D01*
X175090476Y-110526190D02*
X174519047Y-110526190D01*
X174804761Y-110526190D02*
X174804761Y-110026190D01*
X174709523Y-110097619D01*
X174614285Y-110145238D01*
X174519047Y-110169047D01*
X182738095Y-126976190D02*
X182738095Y-126476190D01*
X182738095Y-126714285D02*
X183309523Y-126714285D01*
X183309523Y-126976190D02*
X183309523Y-126476190D01*
X183833333Y-126976190D02*
X184023809Y-126976190D01*
X184119047Y-126952380D01*
X184166666Y-126928571D01*
X184261904Y-126857142D01*
X184309523Y-126761904D01*
X184309523Y-126571428D01*
X184261904Y-126523809D01*
X184214285Y-126500000D01*
X184119047Y-126476190D01*
X183928571Y-126476190D01*
X183833333Y-126500000D01*
X183785714Y-126523809D01*
X183738095Y-126571428D01*
X183738095Y-126690476D01*
X183785714Y-126738095D01*
X183833333Y-126761904D01*
X183928571Y-126785714D01*
X184119047Y-126785714D01*
X184214285Y-126761904D01*
X184261904Y-126738095D01*
X184309523Y-126690476D01*
X196238095Y-127126190D02*
X196238095Y-126626190D01*
X196238095Y-126864285D02*
X196809523Y-126864285D01*
X196809523Y-127126190D02*
X196809523Y-126626190D01*
X197428571Y-126840476D02*
X197333333Y-126816666D01*
X197285714Y-126792857D01*
X197238095Y-126745238D01*
X197238095Y-126721428D01*
X197285714Y-126673809D01*
X197333333Y-126650000D01*
X197428571Y-126626190D01*
X197619047Y-126626190D01*
X197714285Y-126650000D01*
X197761904Y-126673809D01*
X197809523Y-126721428D01*
X197809523Y-126745238D01*
X197761904Y-126792857D01*
X197714285Y-126816666D01*
X197619047Y-126840476D01*
X197428571Y-126840476D01*
X197333333Y-126864285D01*
X197285714Y-126888095D01*
X197238095Y-126935714D01*
X197238095Y-127030952D01*
X197285714Y-127078571D01*
X197333333Y-127102380D01*
X197428571Y-127126190D01*
X197619047Y-127126190D01*
X197714285Y-127102380D01*
X197761904Y-127078571D01*
X197809523Y-127030952D01*
X197809523Y-126935714D01*
X197761904Y-126888095D01*
X197714285Y-126864285D01*
X197619047Y-126840476D01*
X195028571Y-69064285D02*
X194695238Y-69064285D01*
X194695238Y-69326190D02*
X194695238Y-68826190D01*
X195171428Y-68826190D01*
X195552380Y-69326190D02*
X195552380Y-68826190D01*
X196028571Y-69326190D02*
X196028571Y-68826190D01*
X196266666Y-68826190D01*
X196409523Y-68850000D01*
X196504761Y-68897619D01*
X196552380Y-68945238D01*
X196600000Y-69040476D01*
X196600000Y-69111904D01*
X196552380Y-69207142D01*
X196504761Y-69254761D01*
X196409523Y-69302380D01*
X196266666Y-69326190D01*
X196028571Y-69326190D01*
X197457142Y-68992857D02*
X197457142Y-69326190D01*
X197219047Y-68802380D02*
X196980952Y-69159523D01*
X197600000Y-69159523D01*
X195128571Y-103064285D02*
X194795238Y-103064285D01*
X194795238Y-103326190D02*
X194795238Y-102826190D01*
X195271428Y-102826190D01*
X195652380Y-103326190D02*
X195652380Y-102826190D01*
X196128571Y-103326190D02*
X196128571Y-102826190D01*
X196366666Y-102826190D01*
X196509523Y-102850000D01*
X196604761Y-102897619D01*
X196652380Y-102945238D01*
X196700000Y-103040476D01*
X196700000Y-103111904D01*
X196652380Y-103207142D01*
X196604761Y-103254761D01*
X196509523Y-103302380D01*
X196366666Y-103326190D01*
X196128571Y-103326190D01*
X197033333Y-102826190D02*
X197652380Y-102826190D01*
X197319047Y-103016666D01*
X197461904Y-103016666D01*
X197557142Y-103040476D01*
X197604761Y-103064285D01*
X197652380Y-103111904D01*
X197652380Y-103230952D01*
X197604761Y-103278571D01*
X197557142Y-103302380D01*
X197461904Y-103326190D01*
X197176190Y-103326190D01*
X197080952Y-103302380D01*
X197033333Y-103278571D01*
X104628571Y-68964285D02*
X104295238Y-68964285D01*
X104295238Y-69226190D02*
X104295238Y-68726190D01*
X104771428Y-68726190D01*
X105152380Y-69226190D02*
X105152380Y-68726190D01*
X105628571Y-69226190D02*
X105628571Y-68726190D01*
X105866666Y-68726190D01*
X106009523Y-68750000D01*
X106104761Y-68797619D01*
X106152380Y-68845238D01*
X106200000Y-68940476D01*
X106200000Y-69011904D01*
X106152380Y-69107142D01*
X106104761Y-69154761D01*
X106009523Y-69202380D01*
X105866666Y-69226190D01*
X105628571Y-69226190D01*
X106580952Y-68773809D02*
X106628571Y-68750000D01*
X106723809Y-68726190D01*
X106961904Y-68726190D01*
X107057142Y-68750000D01*
X107104761Y-68773809D01*
X107152380Y-68821428D01*
X107152380Y-68869047D01*
X107104761Y-68940476D01*
X106533333Y-69226190D01*
X107152380Y-69226190D01*
X104528571Y-128564285D02*
X104195238Y-128564285D01*
X104195238Y-128826190D02*
X104195238Y-128326190D01*
X104671428Y-128326190D01*
X105052380Y-128826190D02*
X105052380Y-128326190D01*
X105528571Y-128826190D02*
X105528571Y-128326190D01*
X105766666Y-128326190D01*
X105909523Y-128350000D01*
X106004761Y-128397619D01*
X106052380Y-128445238D01*
X106100000Y-128540476D01*
X106100000Y-128611904D01*
X106052380Y-128707142D01*
X106004761Y-128754761D01*
X105909523Y-128802380D01*
X105766666Y-128826190D01*
X105528571Y-128826190D01*
X107052380Y-128826190D02*
X106480952Y-128826190D01*
X106766666Y-128826190D02*
X106766666Y-128326190D01*
X106671428Y-128397619D01*
X106576190Y-128445238D01*
X106480952Y-128469047D01*
X146561904Y-122326190D02*
X146561904Y-121826190D01*
X146800000Y-121826190D01*
X146942857Y-121850000D01*
X147038095Y-121897619D01*
X147085714Y-121945238D01*
X147133333Y-122040476D01*
X147133333Y-122111904D01*
X147085714Y-122207142D01*
X147038095Y-122254761D01*
X146942857Y-122302380D01*
X146800000Y-122326190D01*
X146561904Y-122326190D01*
X147704761Y-122040476D02*
X147609523Y-122016666D01*
X147561904Y-121992857D01*
X147514285Y-121945238D01*
X147514285Y-121921428D01*
X147561904Y-121873809D01*
X147609523Y-121850000D01*
X147704761Y-121826190D01*
X147895238Y-121826190D01*
X147990476Y-121850000D01*
X148038095Y-121873809D01*
X148085714Y-121921428D01*
X148085714Y-121945238D01*
X148038095Y-121992857D01*
X147990476Y-122016666D01*
X147895238Y-122040476D01*
X147704761Y-122040476D01*
X147609523Y-122064285D01*
X147561904Y-122088095D01*
X147514285Y-122135714D01*
X147514285Y-122230952D01*
X147561904Y-122278571D01*
X147609523Y-122302380D01*
X147704761Y-122326190D01*
X147895238Y-122326190D01*
X147990476Y-122302380D01*
X148038095Y-122278571D01*
X148085714Y-122230952D01*
X148085714Y-122135714D01*
X148038095Y-122088095D01*
X147990476Y-122064285D01*
X147895238Y-122040476D01*
X143261904Y-122326190D02*
X143261904Y-121826190D01*
X143500000Y-121826190D01*
X143642857Y-121850000D01*
X143738095Y-121897619D01*
X143785714Y-121945238D01*
X143833333Y-122040476D01*
X143833333Y-122111904D01*
X143785714Y-122207142D01*
X143738095Y-122254761D01*
X143642857Y-122302380D01*
X143500000Y-122326190D01*
X143261904Y-122326190D01*
X144166666Y-121826190D02*
X144833333Y-121826190D01*
X144404761Y-122326190D01*
X141474404Y-108146190D02*
X141474404Y-107646190D01*
X141712500Y-107646190D01*
X141855357Y-107670000D01*
X141950595Y-107717619D01*
X141998214Y-107765238D01*
X142045833Y-107860476D01*
X142045833Y-107931904D01*
X141998214Y-108027142D01*
X141950595Y-108074761D01*
X141855357Y-108122380D01*
X141712500Y-108146190D01*
X141474404Y-108146190D01*
X142522023Y-108146190D02*
X142712500Y-108146190D01*
X142807738Y-108122380D01*
X142855357Y-108098571D01*
X142950595Y-108027142D01*
X142998214Y-107931904D01*
X142998214Y-107741428D01*
X142950595Y-107693809D01*
X142902976Y-107670000D01*
X142807738Y-107646190D01*
X142617261Y-107646190D01*
X142522023Y-107670000D01*
X142474404Y-107693809D01*
X142426785Y-107741428D01*
X142426785Y-107860476D01*
X142474404Y-107908095D01*
X142522023Y-107931904D01*
X142617261Y-107955714D01*
X142807738Y-107955714D01*
X142902976Y-107931904D01*
X142950595Y-107908095D01*
X142998214Y-107860476D01*
X171761904Y-109626190D02*
X171761904Y-109126190D01*
X172000000Y-109126190D01*
X172142857Y-109150000D01*
X172238095Y-109197619D01*
X172285714Y-109245238D01*
X172333333Y-109340476D01*
X172333333Y-109411904D01*
X172285714Y-109507142D01*
X172238095Y-109554761D01*
X172142857Y-109602380D01*
X172000000Y-109626190D01*
X171761904Y-109626190D01*
X173190476Y-109126190D02*
X173000000Y-109126190D01*
X172904761Y-109150000D01*
X172857142Y-109173809D01*
X172761904Y-109245238D01*
X172714285Y-109340476D01*
X172714285Y-109530952D01*
X172761904Y-109578571D01*
X172809523Y-109602380D01*
X172904761Y-109626190D01*
X173095238Y-109626190D01*
X173190476Y-109602380D01*
X173238095Y-109578571D01*
X173285714Y-109530952D01*
X173285714Y-109411904D01*
X173238095Y-109364285D01*
X173190476Y-109340476D01*
X173095238Y-109316666D01*
X172904761Y-109316666D01*
X172809523Y-109340476D01*
X172761904Y-109364285D01*
X172714285Y-109411904D01*
X103988095Y-123376190D02*
X104226190Y-123376190D01*
X103726190Y-123709523D02*
X103988095Y-123376190D01*
X103726190Y-123042857D01*
X104226190Y-122185714D02*
X104226190Y-122757142D01*
X104226190Y-122471428D02*
X103726190Y-122471428D01*
X103797619Y-122566666D01*
X103845238Y-122661904D01*
X103869047Y-122757142D01*
X183338095Y-105326190D02*
X183338095Y-105730952D01*
X183385714Y-105778571D01*
X183433333Y-105802380D01*
X183528571Y-105826190D01*
X183719047Y-105826190D01*
X183814285Y-105802380D01*
X183861904Y-105778571D01*
X183909523Y-105730952D01*
X183909523Y-105326190D01*
X184909523Y-105826190D02*
X184338095Y-105826190D01*
X184623809Y-105826190D02*
X184623809Y-105326190D01*
X184528571Y-105397619D01*
X184433333Y-105445238D01*
X184338095Y-105469047D01*
X150026190Y-127542857D02*
X149788095Y-127876190D01*
X150026190Y-128114285D02*
X149526190Y-128114285D01*
X149526190Y-127733333D01*
X149550000Y-127638095D01*
X149573809Y-127590476D01*
X149621428Y-127542857D01*
X149692857Y-127542857D01*
X149740476Y-127590476D01*
X149764285Y-127638095D01*
X149788095Y-127733333D01*
X149788095Y-128114285D01*
X149526190Y-126685714D02*
X149526190Y-126876190D01*
X149550000Y-126971428D01*
X149573809Y-127019047D01*
X149645238Y-127114285D01*
X149740476Y-127161904D01*
X149930952Y-127161904D01*
X149978571Y-127114285D01*
X150002380Y-127066666D01*
X150026190Y-126971428D01*
X150026190Y-126780952D01*
X150002380Y-126685714D01*
X149978571Y-126638095D01*
X149930952Y-126590476D01*
X149811904Y-126590476D01*
X149764285Y-126638095D01*
X149740476Y-126685714D01*
X149716666Y-126780952D01*
X149716666Y-126971428D01*
X149740476Y-127066666D01*
X149764285Y-127114285D01*
X149811904Y-127161904D01*
X149526190Y-125971428D02*
X149526190Y-125876190D01*
X149550000Y-125780952D01*
X149573809Y-125733333D01*
X149621428Y-125685714D01*
X149716666Y-125638095D01*
X149835714Y-125638095D01*
X149930952Y-125685714D01*
X149978571Y-125733333D01*
X150002380Y-125780952D01*
X150026190Y-125876190D01*
X150026190Y-125971428D01*
X150002380Y-126066666D01*
X149978571Y-126114285D01*
X149930952Y-126161904D01*
X149835714Y-126209523D01*
X149716666Y-126209523D01*
X149621428Y-126161904D01*
X149573809Y-126114285D01*
X149550000Y-126066666D01*
X149526190Y-125971428D01*
X142026190Y-124642857D02*
X141788095Y-124976190D01*
X142026190Y-125214285D02*
X141526190Y-125214285D01*
X141526190Y-124833333D01*
X141550000Y-124738095D01*
X141573809Y-124690476D01*
X141621428Y-124642857D01*
X141692857Y-124642857D01*
X141740476Y-124690476D01*
X141764285Y-124738095D01*
X141788095Y-124833333D01*
X141788095Y-125214285D01*
X141526190Y-123738095D02*
X141526190Y-124214285D01*
X141764285Y-124261904D01*
X141740476Y-124214285D01*
X141716666Y-124119047D01*
X141716666Y-123880952D01*
X141740476Y-123785714D01*
X141764285Y-123738095D01*
X141811904Y-123690476D01*
X141930952Y-123690476D01*
X141978571Y-123738095D01*
X142002380Y-123785714D01*
X142026190Y-123880952D01*
X142026190Y-124119047D01*
X142002380Y-124214285D01*
X141978571Y-124261904D01*
X142026190Y-123214285D02*
X142026190Y-123023809D01*
X142002380Y-122928571D01*
X141978571Y-122880952D01*
X141907142Y-122785714D01*
X141811904Y-122738095D01*
X141621428Y-122738095D01*
X141573809Y-122785714D01*
X141550000Y-122833333D01*
X141526190Y-122928571D01*
X141526190Y-123119047D01*
X141550000Y-123214285D01*
X141573809Y-123261904D01*
X141621428Y-123309523D01*
X141740476Y-123309523D01*
X141788095Y-123261904D01*
X141811904Y-123214285D01*
X141835714Y-123119047D01*
X141835714Y-122928571D01*
X141811904Y-122833333D01*
X141788095Y-122785714D01*
X141740476Y-122738095D01*
X143457142Y-123126190D02*
X143123809Y-122888095D01*
X142885714Y-123126190D02*
X142885714Y-122626190D01*
X143266666Y-122626190D01*
X143361904Y-122650000D01*
X143409523Y-122673809D01*
X143457142Y-122721428D01*
X143457142Y-122792857D01*
X143409523Y-122840476D01*
X143361904Y-122864285D01*
X143266666Y-122888095D01*
X142885714Y-122888095D01*
X144361904Y-122626190D02*
X143885714Y-122626190D01*
X143838095Y-122864285D01*
X143885714Y-122840476D01*
X143980952Y-122816666D01*
X144219047Y-122816666D01*
X144314285Y-122840476D01*
X144361904Y-122864285D01*
X144409523Y-122911904D01*
X144409523Y-123030952D01*
X144361904Y-123078571D01*
X144314285Y-123102380D01*
X144219047Y-123126190D01*
X143980952Y-123126190D01*
X143885714Y-123102380D01*
X143838095Y-123078571D01*
X144742857Y-122626190D02*
X145409523Y-122626190D01*
X144980952Y-123126190D01*
X146557142Y-123126190D02*
X146223809Y-122888095D01*
X145985714Y-123126190D02*
X145985714Y-122626190D01*
X146366666Y-122626190D01*
X146461904Y-122650000D01*
X146509523Y-122673809D01*
X146557142Y-122721428D01*
X146557142Y-122792857D01*
X146509523Y-122840476D01*
X146461904Y-122864285D01*
X146366666Y-122888095D01*
X145985714Y-122888095D01*
X147461904Y-122626190D02*
X146985714Y-122626190D01*
X146938095Y-122864285D01*
X146985714Y-122840476D01*
X147080952Y-122816666D01*
X147319047Y-122816666D01*
X147414285Y-122840476D01*
X147461904Y-122864285D01*
X147509523Y-122911904D01*
X147509523Y-123030952D01*
X147461904Y-123078571D01*
X147414285Y-123102380D01*
X147319047Y-123126190D01*
X147080952Y-123126190D01*
X146985714Y-123102380D01*
X146938095Y-123078571D01*
X148366666Y-122626190D02*
X148176190Y-122626190D01*
X148080952Y-122650000D01*
X148033333Y-122673809D01*
X147938095Y-122745238D01*
X147890476Y-122840476D01*
X147890476Y-123030952D01*
X147938095Y-123078571D01*
X147985714Y-123102380D01*
X148080952Y-123126190D01*
X148271428Y-123126190D01*
X148366666Y-123102380D01*
X148414285Y-123078571D01*
X148461904Y-123030952D01*
X148461904Y-122911904D01*
X148414285Y-122864285D01*
X148366666Y-122840476D01*
X148271428Y-122816666D01*
X148080952Y-122816666D01*
X147985714Y-122840476D01*
X147938095Y-122864285D01*
X147890476Y-122911904D01*
X138257142Y-108096190D02*
X137923809Y-107858095D01*
X137685714Y-108096190D02*
X137685714Y-107596190D01*
X138066666Y-107596190D01*
X138161904Y-107620000D01*
X138209523Y-107643809D01*
X138257142Y-107691428D01*
X138257142Y-107762857D01*
X138209523Y-107810476D01*
X138161904Y-107834285D01*
X138066666Y-107858095D01*
X137685714Y-107858095D01*
X138590476Y-107596190D02*
X139257142Y-107596190D01*
X138828571Y-108096190D01*
X140161904Y-108096190D02*
X139590476Y-108096190D01*
X139876190Y-108096190D02*
X139876190Y-107596190D01*
X139780952Y-107667619D01*
X139685714Y-107715238D01*
X139590476Y-107739047D01*
X170726190Y-112842857D02*
X170488095Y-113176190D01*
X170726190Y-113414285D02*
X170226190Y-113414285D01*
X170226190Y-113033333D01*
X170250000Y-112938095D01*
X170273809Y-112890476D01*
X170321428Y-112842857D01*
X170392857Y-112842857D01*
X170440476Y-112890476D01*
X170464285Y-112938095D01*
X170488095Y-113033333D01*
X170488095Y-113414285D01*
X170226190Y-111938095D02*
X170226190Y-112414285D01*
X170464285Y-112461904D01*
X170440476Y-112414285D01*
X170416666Y-112319047D01*
X170416666Y-112080952D01*
X170440476Y-111985714D01*
X170464285Y-111938095D01*
X170511904Y-111890476D01*
X170630952Y-111890476D01*
X170678571Y-111938095D01*
X170702380Y-111985714D01*
X170726190Y-112080952D01*
X170726190Y-112319047D01*
X170702380Y-112414285D01*
X170678571Y-112461904D01*
X170226190Y-111557142D02*
X170226190Y-110938095D01*
X170416666Y-111271428D01*
X170416666Y-111128571D01*
X170440476Y-111033333D01*
X170464285Y-110985714D01*
X170511904Y-110938095D01*
X170630952Y-110938095D01*
X170678571Y-110985714D01*
X170702380Y-111033333D01*
X170726190Y-111128571D01*
X170726190Y-111414285D01*
X170702380Y-111509523D01*
X170678571Y-111557142D01*
X169946190Y-112842857D02*
X169708095Y-113176190D01*
X169946190Y-113414285D02*
X169446190Y-113414285D01*
X169446190Y-113033333D01*
X169470000Y-112938095D01*
X169493809Y-112890476D01*
X169541428Y-112842857D01*
X169612857Y-112842857D01*
X169660476Y-112890476D01*
X169684285Y-112938095D01*
X169708095Y-113033333D01*
X169708095Y-113414285D01*
X169446190Y-111938095D02*
X169446190Y-112414285D01*
X169684285Y-112461904D01*
X169660476Y-112414285D01*
X169636666Y-112319047D01*
X169636666Y-112080952D01*
X169660476Y-111985714D01*
X169684285Y-111938095D01*
X169731904Y-111890476D01*
X169850952Y-111890476D01*
X169898571Y-111938095D01*
X169922380Y-111985714D01*
X169946190Y-112080952D01*
X169946190Y-112319047D01*
X169922380Y-112414285D01*
X169898571Y-112461904D01*
X169493809Y-111509523D02*
X169470000Y-111461904D01*
X169446190Y-111366666D01*
X169446190Y-111128571D01*
X169470000Y-111033333D01*
X169493809Y-110985714D01*
X169541428Y-110938095D01*
X169589047Y-110938095D01*
X169660476Y-110985714D01*
X169946190Y-111557142D01*
X169946190Y-110938095D01*
X180706190Y-119542857D02*
X180468095Y-119876190D01*
X180706190Y-120114285D02*
X180206190Y-120114285D01*
X180206190Y-119733333D01*
X180230000Y-119638095D01*
X180253809Y-119590476D01*
X180301428Y-119542857D01*
X180372857Y-119542857D01*
X180420476Y-119590476D01*
X180444285Y-119638095D01*
X180468095Y-119733333D01*
X180468095Y-120114285D01*
X180372857Y-118685714D02*
X180706190Y-118685714D01*
X180182380Y-118923809D02*
X180539523Y-119161904D01*
X180539523Y-118542857D01*
X180706190Y-118114285D02*
X180706190Y-117923809D01*
X180682380Y-117828571D01*
X180658571Y-117780952D01*
X180587142Y-117685714D01*
X180491904Y-117638095D01*
X180301428Y-117638095D01*
X180253809Y-117685714D01*
X180230000Y-117733333D01*
X180206190Y-117828571D01*
X180206190Y-118019047D01*
X180230000Y-118114285D01*
X180253809Y-118161904D01*
X180301428Y-118209523D01*
X180420476Y-118209523D01*
X180468095Y-118161904D01*
X180491904Y-118114285D01*
X180515714Y-118019047D01*
X180515714Y-117828571D01*
X180491904Y-117733333D01*
X180468095Y-117685714D01*
X180420476Y-117638095D01*
X169126190Y-112842857D02*
X168888095Y-113176190D01*
X169126190Y-113414285D02*
X168626190Y-113414285D01*
X168626190Y-113033333D01*
X168650000Y-112938095D01*
X168673809Y-112890476D01*
X168721428Y-112842857D01*
X168792857Y-112842857D01*
X168840476Y-112890476D01*
X168864285Y-112938095D01*
X168888095Y-113033333D01*
X168888095Y-113414285D01*
X168792857Y-111985714D02*
X169126190Y-111985714D01*
X168602380Y-112223809D02*
X168959523Y-112461904D01*
X168959523Y-111842857D01*
X168840476Y-111319047D02*
X168816666Y-111414285D01*
X168792857Y-111461904D01*
X168745238Y-111509523D01*
X168721428Y-111509523D01*
X168673809Y-111461904D01*
X168650000Y-111414285D01*
X168626190Y-111319047D01*
X168626190Y-111128571D01*
X168650000Y-111033333D01*
X168673809Y-110985714D01*
X168721428Y-110938095D01*
X168745238Y-110938095D01*
X168792857Y-110985714D01*
X168816666Y-111033333D01*
X168840476Y-111128571D01*
X168840476Y-111319047D01*
X168864285Y-111414285D01*
X168888095Y-111461904D01*
X168935714Y-111509523D01*
X169030952Y-111509523D01*
X169078571Y-111461904D01*
X169102380Y-111414285D01*
X169126190Y-111319047D01*
X169126190Y-111128571D01*
X169102380Y-111033333D01*
X169078571Y-110985714D01*
X169030952Y-110938095D01*
X168935714Y-110938095D01*
X168888095Y-110985714D01*
X168864285Y-111033333D01*
X168840476Y-111128571D01*
X168626190Y-119442857D02*
X168388095Y-119776190D01*
X168626190Y-120014285D02*
X168126190Y-120014285D01*
X168126190Y-119633333D01*
X168150000Y-119538095D01*
X168173809Y-119490476D01*
X168221428Y-119442857D01*
X168292857Y-119442857D01*
X168340476Y-119490476D01*
X168364285Y-119538095D01*
X168388095Y-119633333D01*
X168388095Y-120014285D01*
X168292857Y-118585714D02*
X168626190Y-118585714D01*
X168102380Y-118823809D02*
X168459523Y-119061904D01*
X168459523Y-118442857D01*
X168126190Y-117585714D02*
X168126190Y-118061904D01*
X168364285Y-118109523D01*
X168340476Y-118061904D01*
X168316666Y-117966666D01*
X168316666Y-117728571D01*
X168340476Y-117633333D01*
X168364285Y-117585714D01*
X168411904Y-117538095D01*
X168530952Y-117538095D01*
X168578571Y-117585714D01*
X168602380Y-117633333D01*
X168626190Y-117728571D01*
X168626190Y-117966666D01*
X168602380Y-118061904D01*
X168578571Y-118109523D01*
X168416190Y-112842857D02*
X168178095Y-113176190D01*
X168416190Y-113414285D02*
X167916190Y-113414285D01*
X167916190Y-113033333D01*
X167940000Y-112938095D01*
X167963809Y-112890476D01*
X168011428Y-112842857D01*
X168082857Y-112842857D01*
X168130476Y-112890476D01*
X168154285Y-112938095D01*
X168178095Y-113033333D01*
X168178095Y-113414285D01*
X168082857Y-111985714D02*
X168416190Y-111985714D01*
X167892380Y-112223809D02*
X168249523Y-112461904D01*
X168249523Y-111842857D01*
X168082857Y-111033333D02*
X168416190Y-111033333D01*
X167892380Y-111271428D02*
X168249523Y-111509523D01*
X168249523Y-110890476D01*
X168626190Y-122742857D02*
X168388095Y-123076190D01*
X168626190Y-123314285D02*
X168126190Y-123314285D01*
X168126190Y-122933333D01*
X168150000Y-122838095D01*
X168173809Y-122790476D01*
X168221428Y-122742857D01*
X168292857Y-122742857D01*
X168340476Y-122790476D01*
X168364285Y-122838095D01*
X168388095Y-122933333D01*
X168388095Y-123314285D01*
X168292857Y-121885714D02*
X168626190Y-121885714D01*
X168102380Y-122123809D02*
X168459523Y-122361904D01*
X168459523Y-121742857D01*
X168626190Y-120838095D02*
X168626190Y-121409523D01*
X168626190Y-121123809D02*
X168126190Y-121123809D01*
X168197619Y-121219047D01*
X168245238Y-121314285D01*
X168269047Y-121409523D01*
X147926190Y-110842857D02*
X147688095Y-111176190D01*
X147926190Y-111414285D02*
X147426190Y-111414285D01*
X147426190Y-111033333D01*
X147450000Y-110938095D01*
X147473809Y-110890476D01*
X147521428Y-110842857D01*
X147592857Y-110842857D01*
X147640476Y-110890476D01*
X147664285Y-110938095D01*
X147688095Y-111033333D01*
X147688095Y-111414285D01*
X147426190Y-109985714D02*
X147426190Y-110176190D01*
X147450000Y-110271428D01*
X147473809Y-110319047D01*
X147545238Y-110414285D01*
X147640476Y-110461904D01*
X147830952Y-110461904D01*
X147878571Y-110414285D01*
X147902380Y-110366666D01*
X147926190Y-110271428D01*
X147926190Y-110080952D01*
X147902380Y-109985714D01*
X147878571Y-109938095D01*
X147830952Y-109890476D01*
X147711904Y-109890476D01*
X147664285Y-109938095D01*
X147640476Y-109985714D01*
X147616666Y-110080952D01*
X147616666Y-110271428D01*
X147640476Y-110366666D01*
X147664285Y-110414285D01*
X147711904Y-110461904D01*
X147426190Y-109557142D02*
X147426190Y-108890476D01*
X147926190Y-109319047D01*
X140226190Y-134033333D02*
X140583333Y-134033333D01*
X140654761Y-134080952D01*
X140702380Y-134176190D01*
X140726190Y-134319047D01*
X140726190Y-134414285D01*
X140226190Y-133652380D02*
X140226190Y-133033333D01*
X140416666Y-133366666D01*
X140416666Y-133223809D01*
X140440476Y-133128571D01*
X140464285Y-133080952D01*
X140511904Y-133033333D01*
X140630952Y-133033333D01*
X140678571Y-133080952D01*
X140702380Y-133128571D01*
X140726190Y-133223809D01*
X140726190Y-133509523D01*
X140702380Y-133604761D01*
X140678571Y-133652380D01*
X129938095Y-70426190D02*
X129938095Y-69926190D01*
X129938095Y-70164285D02*
X130509523Y-70164285D01*
X130509523Y-70426190D02*
X130509523Y-69926190D01*
X130890476Y-69926190D02*
X131557142Y-69926190D01*
X131128571Y-70426190D01*
X160438095Y-70326190D02*
X160438095Y-69826190D01*
X160438095Y-70064285D02*
X161009523Y-70064285D01*
X161009523Y-70326190D02*
X161009523Y-69826190D01*
X161914285Y-69826190D02*
X161723809Y-69826190D01*
X161628571Y-69850000D01*
X161580952Y-69873809D01*
X161485714Y-69945238D01*
X161438095Y-70040476D01*
X161438095Y-70230952D01*
X161485714Y-70278571D01*
X161533333Y-70302380D01*
X161628571Y-70326190D01*
X161819047Y-70326190D01*
X161914285Y-70302380D01*
X161961904Y-70278571D01*
X162009523Y-70230952D01*
X162009523Y-70111904D01*
X161961904Y-70064285D01*
X161914285Y-70040476D01*
X161819047Y-70016666D01*
X161628571Y-70016666D01*
X161533333Y-70040476D01*
X161485714Y-70064285D01*
X161438095Y-70111904D01*
X191438095Y-70326190D02*
X191438095Y-69826190D01*
X191438095Y-70064285D02*
X192009523Y-70064285D01*
X192009523Y-70326190D02*
X192009523Y-69826190D01*
X192961904Y-69826190D02*
X192485714Y-69826190D01*
X192438095Y-70064285D01*
X192485714Y-70040476D01*
X192580952Y-70016666D01*
X192819047Y-70016666D01*
X192914285Y-70040476D01*
X192961904Y-70064285D01*
X193009523Y-70111904D01*
X193009523Y-70230952D01*
X192961904Y-70278571D01*
X192914285Y-70302380D01*
X192819047Y-70326190D01*
X192580952Y-70326190D01*
X192485714Y-70302380D01*
X192438095Y-70278571D01*
X180461904Y-103526190D02*
X180461904Y-103026190D01*
X180700000Y-103026190D01*
X180842857Y-103050000D01*
X180938095Y-103097619D01*
X180985714Y-103145238D01*
X181033333Y-103240476D01*
X181033333Y-103311904D01*
X180985714Y-103407142D01*
X180938095Y-103454761D01*
X180842857Y-103502380D01*
X180700000Y-103526190D01*
X180461904Y-103526190D01*
X181938095Y-103026190D02*
X181461904Y-103026190D01*
X181414285Y-103264285D01*
X181461904Y-103240476D01*
X181557142Y-103216666D01*
X181795238Y-103216666D01*
X181890476Y-103240476D01*
X181938095Y-103264285D01*
X181985714Y-103311904D01*
X181985714Y-103430952D01*
X181938095Y-103478571D01*
X181890476Y-103502380D01*
X181795238Y-103526190D01*
X181557142Y-103526190D01*
X181461904Y-103502380D01*
X181414285Y-103478571D01*
X141178571Y-124642857D02*
X141202380Y-124690476D01*
X141226190Y-124833333D01*
X141226190Y-124928571D01*
X141202380Y-125071428D01*
X141154761Y-125166666D01*
X141107142Y-125214285D01*
X141011904Y-125261904D01*
X140940476Y-125261904D01*
X140845238Y-125214285D01*
X140797619Y-125166666D01*
X140750000Y-125071428D01*
X140726190Y-124928571D01*
X140726190Y-124833333D01*
X140750000Y-124690476D01*
X140773809Y-124642857D01*
X140892857Y-123785714D02*
X141226190Y-123785714D01*
X140702380Y-124023809D02*
X141059523Y-124261904D01*
X141059523Y-123642857D01*
X140940476Y-123119047D02*
X140916666Y-123214285D01*
X140892857Y-123261904D01*
X140845238Y-123309523D01*
X140821428Y-123309523D01*
X140773809Y-123261904D01*
X140750000Y-123214285D01*
X140726190Y-123119047D01*
X140726190Y-122928571D01*
X140750000Y-122833333D01*
X140773809Y-122785714D01*
X140821428Y-122738095D01*
X140845238Y-122738095D01*
X140892857Y-122785714D01*
X140916666Y-122833333D01*
X140940476Y-122928571D01*
X140940476Y-123119047D01*
X140964285Y-123214285D01*
X140988095Y-123261904D01*
X141035714Y-123309523D01*
X141130952Y-123309523D01*
X141178571Y-123261904D01*
X141202380Y-123214285D01*
X141226190Y-123119047D01*
X141226190Y-122928571D01*
X141202380Y-122833333D01*
X141178571Y-122785714D01*
X141130952Y-122738095D01*
X141035714Y-122738095D01*
X140988095Y-122785714D01*
X140964285Y-122833333D01*
X140940476Y-122928571D01*
X149978571Y-130242857D02*
X150002380Y-130290476D01*
X150026190Y-130433333D01*
X150026190Y-130528571D01*
X150002380Y-130671428D01*
X149954761Y-130766666D01*
X149907142Y-130814285D01*
X149811904Y-130861904D01*
X149740476Y-130861904D01*
X149645238Y-130814285D01*
X149597619Y-130766666D01*
X149550000Y-130671428D01*
X149526190Y-130528571D01*
X149526190Y-130433333D01*
X149550000Y-130290476D01*
X149573809Y-130242857D01*
X149692857Y-129385714D02*
X150026190Y-129385714D01*
X149502380Y-129623809D02*
X149859523Y-129861904D01*
X149859523Y-129242857D01*
X149526190Y-128957142D02*
X149526190Y-128290476D01*
X150026190Y-128719047D01*
X141278571Y-130242857D02*
X141302380Y-130290476D01*
X141326190Y-130433333D01*
X141326190Y-130528571D01*
X141302380Y-130671428D01*
X141254761Y-130766666D01*
X141207142Y-130814285D01*
X141111904Y-130861904D01*
X141040476Y-130861904D01*
X140945238Y-130814285D01*
X140897619Y-130766666D01*
X140850000Y-130671428D01*
X140826190Y-130528571D01*
X140826190Y-130433333D01*
X140850000Y-130290476D01*
X140873809Y-130242857D01*
X140992857Y-129385714D02*
X141326190Y-129385714D01*
X140802380Y-129623809D02*
X141159523Y-129861904D01*
X141159523Y-129242857D01*
X140826190Y-128385714D02*
X140826190Y-128861904D01*
X141064285Y-128909523D01*
X141040476Y-128861904D01*
X141016666Y-128766666D01*
X141016666Y-128528571D01*
X141040476Y-128433333D01*
X141064285Y-128385714D01*
X141111904Y-128338095D01*
X141230952Y-128338095D01*
X141278571Y-128385714D01*
X141302380Y-128433333D01*
X141326190Y-128528571D01*
X141326190Y-128766666D01*
X141302380Y-128861904D01*
X141278571Y-128909523D01*
X109878571Y-117042857D02*
X109902380Y-117090476D01*
X109926190Y-117233333D01*
X109926190Y-117328571D01*
X109902380Y-117471428D01*
X109854761Y-117566666D01*
X109807142Y-117614285D01*
X109711904Y-117661904D01*
X109640476Y-117661904D01*
X109545238Y-117614285D01*
X109497619Y-117566666D01*
X109450000Y-117471428D01*
X109426190Y-117328571D01*
X109426190Y-117233333D01*
X109450000Y-117090476D01*
X109473809Y-117042857D01*
X109640476Y-116471428D02*
X109616666Y-116566666D01*
X109592857Y-116614285D01*
X109545238Y-116661904D01*
X109521428Y-116661904D01*
X109473809Y-116614285D01*
X109450000Y-116566666D01*
X109426190Y-116471428D01*
X109426190Y-116280952D01*
X109450000Y-116185714D01*
X109473809Y-116138095D01*
X109521428Y-116090476D01*
X109545238Y-116090476D01*
X109592857Y-116138095D01*
X109616666Y-116185714D01*
X109640476Y-116280952D01*
X109640476Y-116471428D01*
X109664285Y-116566666D01*
X109688095Y-116614285D01*
X109735714Y-116661904D01*
X109830952Y-116661904D01*
X109878571Y-116614285D01*
X109902380Y-116566666D01*
X109926190Y-116471428D01*
X109926190Y-116280952D01*
X109902380Y-116185714D01*
X109878571Y-116138095D01*
X109830952Y-116090476D01*
X109735714Y-116090476D01*
X109688095Y-116138095D01*
X109664285Y-116185714D01*
X109640476Y-116280952D01*
X109592857Y-115233333D02*
X109926190Y-115233333D01*
X109402380Y-115471428D02*
X109759523Y-115709523D01*
X109759523Y-115090476D01*
X109878571Y-123842857D02*
X109902380Y-123890476D01*
X109926190Y-124033333D01*
X109926190Y-124128571D01*
X109902380Y-124271428D01*
X109854761Y-124366666D01*
X109807142Y-124414285D01*
X109711904Y-124461904D01*
X109640476Y-124461904D01*
X109545238Y-124414285D01*
X109497619Y-124366666D01*
X109450000Y-124271428D01*
X109426190Y-124128571D01*
X109426190Y-124033333D01*
X109450000Y-123890476D01*
X109473809Y-123842857D01*
X109640476Y-123271428D02*
X109616666Y-123366666D01*
X109592857Y-123414285D01*
X109545238Y-123461904D01*
X109521428Y-123461904D01*
X109473809Y-123414285D01*
X109450000Y-123366666D01*
X109426190Y-123271428D01*
X109426190Y-123080952D01*
X109450000Y-122985714D01*
X109473809Y-122938095D01*
X109521428Y-122890476D01*
X109545238Y-122890476D01*
X109592857Y-122938095D01*
X109616666Y-122985714D01*
X109640476Y-123080952D01*
X109640476Y-123271428D01*
X109664285Y-123366666D01*
X109688095Y-123414285D01*
X109735714Y-123461904D01*
X109830952Y-123461904D01*
X109878571Y-123414285D01*
X109902380Y-123366666D01*
X109926190Y-123271428D01*
X109926190Y-123080952D01*
X109902380Y-122985714D01*
X109878571Y-122938095D01*
X109830952Y-122890476D01*
X109735714Y-122890476D01*
X109688095Y-122938095D01*
X109664285Y-122985714D01*
X109640476Y-123080952D01*
X109426190Y-122557142D02*
X109426190Y-121938095D01*
X109616666Y-122271428D01*
X109616666Y-122128571D01*
X109640476Y-122033333D01*
X109664285Y-121985714D01*
X109711904Y-121938095D01*
X109830952Y-121938095D01*
X109878571Y-121985714D01*
X109902380Y-122033333D01*
X109926190Y-122128571D01*
X109926190Y-122414285D01*
X109902380Y-122509523D01*
X109878571Y-122557142D01*
X172057142Y-103028571D02*
X172009523Y-103052380D01*
X171866666Y-103076190D01*
X171771428Y-103076190D01*
X171628571Y-103052380D01*
X171533333Y-103004761D01*
X171485714Y-102957142D01*
X171438095Y-102861904D01*
X171438095Y-102790476D01*
X171485714Y-102695238D01*
X171533333Y-102647619D01*
X171628571Y-102600000D01*
X171771428Y-102576190D01*
X171866666Y-102576190D01*
X172009523Y-102600000D01*
X172057142Y-102623809D01*
X172438095Y-102623809D02*
X172485714Y-102600000D01*
X172580952Y-102576190D01*
X172819047Y-102576190D01*
X172914285Y-102600000D01*
X172961904Y-102623809D01*
X173009523Y-102671428D01*
X173009523Y-102719047D01*
X172961904Y-102790476D01*
X172390476Y-103076190D01*
X173009523Y-103076190D01*
X173342857Y-102576190D02*
X174009523Y-102576190D01*
X173580952Y-103076190D01*
X179457142Y-112078571D02*
X179409523Y-112102380D01*
X179266666Y-112126190D01*
X179171428Y-112126190D01*
X179028571Y-112102380D01*
X178933333Y-112054761D01*
X178885714Y-112007142D01*
X178838095Y-111911904D01*
X178838095Y-111840476D01*
X178885714Y-111745238D01*
X178933333Y-111697619D01*
X179028571Y-111650000D01*
X179171428Y-111626190D01*
X179266666Y-111626190D01*
X179409523Y-111650000D01*
X179457142Y-111673809D01*
X179838095Y-111673809D02*
X179885714Y-111650000D01*
X179980952Y-111626190D01*
X180219047Y-111626190D01*
X180314285Y-111650000D01*
X180361904Y-111673809D01*
X180409523Y-111721428D01*
X180409523Y-111769047D01*
X180361904Y-111840476D01*
X179790476Y-112126190D01*
X180409523Y-112126190D01*
X181314285Y-111626190D02*
X180838095Y-111626190D01*
X180790476Y-111864285D01*
X180838095Y-111840476D01*
X180933333Y-111816666D01*
X181171428Y-111816666D01*
X181266666Y-111840476D01*
X181314285Y-111864285D01*
X181361904Y-111911904D01*
X181361904Y-112030952D01*
X181314285Y-112078571D01*
X181266666Y-112102380D01*
X181171428Y-112126190D01*
X180933333Y-112126190D01*
X180838095Y-112102380D01*
X180790476Y-112078571D01*
X154678571Y-110742857D02*
X154702380Y-110790476D01*
X154726190Y-110933333D01*
X154726190Y-111028571D01*
X154702380Y-111171428D01*
X154654761Y-111266666D01*
X154607142Y-111314285D01*
X154511904Y-111361904D01*
X154440476Y-111361904D01*
X154345238Y-111314285D01*
X154297619Y-111266666D01*
X154250000Y-111171428D01*
X154226190Y-111028571D01*
X154226190Y-110933333D01*
X154250000Y-110790476D01*
X154273809Y-110742857D01*
X154226190Y-109885714D02*
X154226190Y-110076190D01*
X154250000Y-110171428D01*
X154273809Y-110219047D01*
X154345238Y-110314285D01*
X154440476Y-110361904D01*
X154630952Y-110361904D01*
X154678571Y-110314285D01*
X154702380Y-110266666D01*
X154726190Y-110171428D01*
X154726190Y-109980952D01*
X154702380Y-109885714D01*
X154678571Y-109838095D01*
X154630952Y-109790476D01*
X154511904Y-109790476D01*
X154464285Y-109838095D01*
X154440476Y-109885714D01*
X154416666Y-109980952D01*
X154416666Y-110171428D01*
X154440476Y-110266666D01*
X154464285Y-110314285D01*
X154511904Y-110361904D01*
X154392857Y-108933333D02*
X154726190Y-108933333D01*
X154202380Y-109171428D02*
X154559523Y-109409523D01*
X154559523Y-108790476D01*
X152478571Y-110242857D02*
X152502380Y-110290476D01*
X152526190Y-110433333D01*
X152526190Y-110528571D01*
X152502380Y-110671428D01*
X152454761Y-110766666D01*
X152407142Y-110814285D01*
X152311904Y-110861904D01*
X152240476Y-110861904D01*
X152145238Y-110814285D01*
X152097619Y-110766666D01*
X152050000Y-110671428D01*
X152026190Y-110528571D01*
X152026190Y-110433333D01*
X152050000Y-110290476D01*
X152073809Y-110242857D01*
X152026190Y-109338095D02*
X152026190Y-109814285D01*
X152264285Y-109861904D01*
X152240476Y-109814285D01*
X152216666Y-109719047D01*
X152216666Y-109480952D01*
X152240476Y-109385714D01*
X152264285Y-109338095D01*
X152311904Y-109290476D01*
X152430952Y-109290476D01*
X152478571Y-109338095D01*
X152502380Y-109385714D01*
X152526190Y-109480952D01*
X152526190Y-109719047D01*
X152502380Y-109814285D01*
X152478571Y-109861904D01*
X152240476Y-108719047D02*
X152216666Y-108814285D01*
X152192857Y-108861904D01*
X152145238Y-108909523D01*
X152121428Y-108909523D01*
X152073809Y-108861904D01*
X152050000Y-108814285D01*
X152026190Y-108719047D01*
X152026190Y-108528571D01*
X152050000Y-108433333D01*
X152073809Y-108385714D01*
X152121428Y-108338095D01*
X152145238Y-108338095D01*
X152192857Y-108385714D01*
X152216666Y-108433333D01*
X152240476Y-108528571D01*
X152240476Y-108719047D01*
X152264285Y-108814285D01*
X152288095Y-108861904D01*
X152335714Y-108909523D01*
X152430952Y-108909523D01*
X152478571Y-108861904D01*
X152502380Y-108814285D01*
X152526190Y-108719047D01*
X152526190Y-108528571D01*
X152502380Y-108433333D01*
X152478571Y-108385714D01*
X152430952Y-108338095D01*
X152335714Y-108338095D01*
X152288095Y-108385714D01*
X152264285Y-108433333D01*
X152240476Y-108528571D01*
X158857142Y-107678571D02*
X158809523Y-107702380D01*
X158666666Y-107726190D01*
X158571428Y-107726190D01*
X158428571Y-107702380D01*
X158333333Y-107654761D01*
X158285714Y-107607142D01*
X158238095Y-107511904D01*
X158238095Y-107440476D01*
X158285714Y-107345238D01*
X158333333Y-107297619D01*
X158428571Y-107250000D01*
X158571428Y-107226190D01*
X158666666Y-107226190D01*
X158809523Y-107250000D01*
X158857142Y-107273809D01*
X159761904Y-107226190D02*
X159285714Y-107226190D01*
X159238095Y-107464285D01*
X159285714Y-107440476D01*
X159380952Y-107416666D01*
X159619047Y-107416666D01*
X159714285Y-107440476D01*
X159761904Y-107464285D01*
X159809523Y-107511904D01*
X159809523Y-107630952D01*
X159761904Y-107678571D01*
X159714285Y-107702380D01*
X159619047Y-107726190D01*
X159380952Y-107726190D01*
X159285714Y-107702380D01*
X159238095Y-107678571D01*
X160142857Y-107226190D02*
X160809523Y-107226190D01*
X160380952Y-107726190D01*
X117278571Y-103092857D02*
X117302380Y-103140476D01*
X117326190Y-103283333D01*
X117326190Y-103378571D01*
X117302380Y-103521428D01*
X117254761Y-103616666D01*
X117207142Y-103664285D01*
X117111904Y-103711904D01*
X117040476Y-103711904D01*
X116945238Y-103664285D01*
X116897619Y-103616666D01*
X116850000Y-103521428D01*
X116826190Y-103378571D01*
X116826190Y-103283333D01*
X116850000Y-103140476D01*
X116873809Y-103092857D01*
X116826190Y-102188095D02*
X116826190Y-102664285D01*
X117064285Y-102711904D01*
X117040476Y-102664285D01*
X117016666Y-102569047D01*
X117016666Y-102330952D01*
X117040476Y-102235714D01*
X117064285Y-102188095D01*
X117111904Y-102140476D01*
X117230952Y-102140476D01*
X117278571Y-102188095D01*
X117302380Y-102235714D01*
X117326190Y-102330952D01*
X117326190Y-102569047D01*
X117302380Y-102664285D01*
X117278571Y-102711904D01*
X116826190Y-101283333D02*
X116826190Y-101473809D01*
X116850000Y-101569047D01*
X116873809Y-101616666D01*
X116945238Y-101711904D01*
X117040476Y-101759523D01*
X117230952Y-101759523D01*
X117278571Y-101711904D01*
X117302380Y-101664285D01*
X117326190Y-101569047D01*
X117326190Y-101378571D01*
X117302380Y-101283333D01*
X117278571Y-101235714D01*
X117230952Y-101188095D01*
X117111904Y-101188095D01*
X117064285Y-101235714D01*
X117040476Y-101283333D01*
X117016666Y-101378571D01*
X117016666Y-101569047D01*
X117040476Y-101664285D01*
X117064285Y-101711904D01*
X117111904Y-101759523D01*
X138228571Y-106342857D02*
X138252380Y-106390476D01*
X138276190Y-106533333D01*
X138276190Y-106628571D01*
X138252380Y-106771428D01*
X138204761Y-106866666D01*
X138157142Y-106914285D01*
X138061904Y-106961904D01*
X137990476Y-106961904D01*
X137895238Y-106914285D01*
X137847619Y-106866666D01*
X137800000Y-106771428D01*
X137776190Y-106628571D01*
X137776190Y-106533333D01*
X137800000Y-106390476D01*
X137823809Y-106342857D01*
X137776190Y-105438095D02*
X137776190Y-105914285D01*
X138014285Y-105961904D01*
X137990476Y-105914285D01*
X137966666Y-105819047D01*
X137966666Y-105580952D01*
X137990476Y-105485714D01*
X138014285Y-105438095D01*
X138061904Y-105390476D01*
X138180952Y-105390476D01*
X138228571Y-105438095D01*
X138252380Y-105485714D01*
X138276190Y-105580952D01*
X138276190Y-105819047D01*
X138252380Y-105914285D01*
X138228571Y-105961904D01*
X137776190Y-105057142D02*
X137776190Y-104438095D01*
X137966666Y-104771428D01*
X137966666Y-104628571D01*
X137990476Y-104533333D01*
X138014285Y-104485714D01*
X138061904Y-104438095D01*
X138180952Y-104438095D01*
X138228571Y-104485714D01*
X138252380Y-104533333D01*
X138276190Y-104628571D01*
X138276190Y-104914285D01*
X138252380Y-105009523D01*
X138228571Y-105057142D01*
X127428571Y-103042857D02*
X127452380Y-103090476D01*
X127476190Y-103233333D01*
X127476190Y-103328571D01*
X127452380Y-103471428D01*
X127404761Y-103566666D01*
X127357142Y-103614285D01*
X127261904Y-103661904D01*
X127190476Y-103661904D01*
X127095238Y-103614285D01*
X127047619Y-103566666D01*
X127000000Y-103471428D01*
X126976190Y-103328571D01*
X126976190Y-103233333D01*
X127000000Y-103090476D01*
X127023809Y-103042857D01*
X126976190Y-102138095D02*
X126976190Y-102614285D01*
X127214285Y-102661904D01*
X127190476Y-102614285D01*
X127166666Y-102519047D01*
X127166666Y-102280952D01*
X127190476Y-102185714D01*
X127214285Y-102138095D01*
X127261904Y-102090476D01*
X127380952Y-102090476D01*
X127428571Y-102138095D01*
X127452380Y-102185714D01*
X127476190Y-102280952D01*
X127476190Y-102519047D01*
X127452380Y-102614285D01*
X127428571Y-102661904D01*
X127023809Y-101709523D02*
X127000000Y-101661904D01*
X126976190Y-101566666D01*
X126976190Y-101328571D01*
X127000000Y-101233333D01*
X127023809Y-101185714D01*
X127071428Y-101138095D01*
X127119047Y-101138095D01*
X127190476Y-101185714D01*
X127476190Y-101757142D01*
X127476190Y-101138095D01*
X113878571Y-102992857D02*
X113902380Y-103040476D01*
X113926190Y-103183333D01*
X113926190Y-103278571D01*
X113902380Y-103421428D01*
X113854761Y-103516666D01*
X113807142Y-103564285D01*
X113711904Y-103611904D01*
X113640476Y-103611904D01*
X113545238Y-103564285D01*
X113497619Y-103516666D01*
X113450000Y-103421428D01*
X113426190Y-103278571D01*
X113426190Y-103183333D01*
X113450000Y-103040476D01*
X113473809Y-102992857D01*
X113473809Y-102611904D02*
X113450000Y-102564285D01*
X113426190Y-102469047D01*
X113426190Y-102230952D01*
X113450000Y-102135714D01*
X113473809Y-102088095D01*
X113521428Y-102040476D01*
X113569047Y-102040476D01*
X113640476Y-102088095D01*
X113926190Y-102659523D01*
X113926190Y-102040476D01*
X113926190Y-101088095D02*
X113926190Y-101659523D01*
X113926190Y-101373809D02*
X113426190Y-101373809D01*
X113497619Y-101469047D01*
X113545238Y-101564285D01*
X113569047Y-101659523D01*
X119078571Y-103142857D02*
X119102380Y-103190476D01*
X119126190Y-103333333D01*
X119126190Y-103428571D01*
X119102380Y-103571428D01*
X119054761Y-103666666D01*
X119007142Y-103714285D01*
X118911904Y-103761904D01*
X118840476Y-103761904D01*
X118745238Y-103714285D01*
X118697619Y-103666666D01*
X118650000Y-103571428D01*
X118626190Y-103428571D01*
X118626190Y-103333333D01*
X118650000Y-103190476D01*
X118673809Y-103142857D01*
X118673809Y-102761904D02*
X118650000Y-102714285D01*
X118626190Y-102619047D01*
X118626190Y-102380952D01*
X118650000Y-102285714D01*
X118673809Y-102238095D01*
X118721428Y-102190476D01*
X118769047Y-102190476D01*
X118840476Y-102238095D01*
X119126190Y-102809523D01*
X119126190Y-102190476D01*
X118626190Y-101571428D02*
X118626190Y-101476190D01*
X118650000Y-101380952D01*
X118673809Y-101333333D01*
X118721428Y-101285714D01*
X118816666Y-101238095D01*
X118935714Y-101238095D01*
X119030952Y-101285714D01*
X119078571Y-101333333D01*
X119102380Y-101380952D01*
X119126190Y-101476190D01*
X119126190Y-101571428D01*
X119102380Y-101666666D01*
X119078571Y-101714285D01*
X119030952Y-101761904D01*
X118935714Y-101809523D01*
X118816666Y-101809523D01*
X118721428Y-101761904D01*
X118673809Y-101714285D01*
X118650000Y-101666666D01*
X118626190Y-101571428D01*
X181257142Y-79878571D02*
X181209523Y-79902380D01*
X181066666Y-79926190D01*
X180971428Y-79926190D01*
X180828571Y-79902380D01*
X180733333Y-79854761D01*
X180685714Y-79807142D01*
X180638095Y-79711904D01*
X180638095Y-79640476D01*
X180685714Y-79545238D01*
X180733333Y-79497619D01*
X180828571Y-79450000D01*
X180971428Y-79426190D01*
X181066666Y-79426190D01*
X181209523Y-79450000D01*
X181257142Y-79473809D01*
X182209523Y-79926190D02*
X181638095Y-79926190D01*
X181923809Y-79926190D02*
X181923809Y-79426190D01*
X181828571Y-79497619D01*
X181733333Y-79545238D01*
X181638095Y-79569047D01*
X182780952Y-79640476D02*
X182685714Y-79616666D01*
X182638095Y-79592857D01*
X182590476Y-79545238D01*
X182590476Y-79521428D01*
X182638095Y-79473809D01*
X182685714Y-79450000D01*
X182780952Y-79426190D01*
X182971428Y-79426190D01*
X183066666Y-79450000D01*
X183114285Y-79473809D01*
X183161904Y-79521428D01*
X183161904Y-79545238D01*
X183114285Y-79592857D01*
X183066666Y-79616666D01*
X182971428Y-79640476D01*
X182780952Y-79640476D01*
X182685714Y-79664285D01*
X182638095Y-79688095D01*
X182590476Y-79735714D01*
X182590476Y-79830952D01*
X182638095Y-79878571D01*
X182685714Y-79902380D01*
X182780952Y-79926190D01*
X182971428Y-79926190D01*
X183066666Y-79902380D01*
X183114285Y-79878571D01*
X183161904Y-79830952D01*
X183161904Y-79735714D01*
X183114285Y-79688095D01*
X183066666Y-79664285D01*
X182971428Y-79640476D01*
X150257142Y-79878571D02*
X150209523Y-79902380D01*
X150066666Y-79926190D01*
X149971428Y-79926190D01*
X149828571Y-79902380D01*
X149733333Y-79854761D01*
X149685714Y-79807142D01*
X149638095Y-79711904D01*
X149638095Y-79640476D01*
X149685714Y-79545238D01*
X149733333Y-79497619D01*
X149828571Y-79450000D01*
X149971428Y-79426190D01*
X150066666Y-79426190D01*
X150209523Y-79450000D01*
X150257142Y-79473809D01*
X151209523Y-79926190D02*
X150638095Y-79926190D01*
X150923809Y-79926190D02*
X150923809Y-79426190D01*
X150828571Y-79497619D01*
X150733333Y-79545238D01*
X150638095Y-79569047D01*
X151542857Y-79426190D02*
X152209523Y-79426190D01*
X151780952Y-79926190D01*
X124078571Y-103042857D02*
X124102380Y-103090476D01*
X124126190Y-103233333D01*
X124126190Y-103328571D01*
X124102380Y-103471428D01*
X124054761Y-103566666D01*
X124007142Y-103614285D01*
X123911904Y-103661904D01*
X123840476Y-103661904D01*
X123745238Y-103614285D01*
X123697619Y-103566666D01*
X123650000Y-103471428D01*
X123626190Y-103328571D01*
X123626190Y-103233333D01*
X123650000Y-103090476D01*
X123673809Y-103042857D01*
X124126190Y-102090476D02*
X124126190Y-102661904D01*
X124126190Y-102376190D02*
X123626190Y-102376190D01*
X123697619Y-102471428D01*
X123745238Y-102566666D01*
X123769047Y-102661904D01*
X123626190Y-101185714D02*
X123626190Y-101661904D01*
X123864285Y-101709523D01*
X123840476Y-101661904D01*
X123816666Y-101566666D01*
X123816666Y-101328571D01*
X123840476Y-101233333D01*
X123864285Y-101185714D01*
X123911904Y-101138095D01*
X124030952Y-101138095D01*
X124078571Y-101185714D01*
X124102380Y-101233333D01*
X124126190Y-101328571D01*
X124126190Y-101566666D01*
X124102380Y-101661904D01*
X124078571Y-101709523D01*
X189457142Y-129678571D02*
X189409523Y-129702380D01*
X189266666Y-129726190D01*
X189171428Y-129726190D01*
X189028571Y-129702380D01*
X188933333Y-129654761D01*
X188885714Y-129607142D01*
X188838095Y-129511904D01*
X188838095Y-129440476D01*
X188885714Y-129345238D01*
X188933333Y-129297619D01*
X189028571Y-129250000D01*
X189171428Y-129226190D01*
X189266666Y-129226190D01*
X189409523Y-129250000D01*
X189457142Y-129273809D01*
X190409523Y-129726190D02*
X189838095Y-129726190D01*
X190123809Y-129726190D02*
X190123809Y-129226190D01*
X190028571Y-129297619D01*
X189933333Y-129345238D01*
X189838095Y-129369047D01*
X191266666Y-129392857D02*
X191266666Y-129726190D01*
X191028571Y-129202380D02*
X190790476Y-129559523D01*
X191409523Y-129559523D01*
X181257142Y-80778571D02*
X181209523Y-80802380D01*
X181066666Y-80826190D01*
X180971428Y-80826190D01*
X180828571Y-80802380D01*
X180733333Y-80754761D01*
X180685714Y-80707142D01*
X180638095Y-80611904D01*
X180638095Y-80540476D01*
X180685714Y-80445238D01*
X180733333Y-80397619D01*
X180828571Y-80350000D01*
X180971428Y-80326190D01*
X181066666Y-80326190D01*
X181209523Y-80350000D01*
X181257142Y-80373809D01*
X182209523Y-80826190D02*
X181638095Y-80826190D01*
X181923809Y-80826190D02*
X181923809Y-80326190D01*
X181828571Y-80397619D01*
X181733333Y-80445238D01*
X181638095Y-80469047D01*
X182542857Y-80326190D02*
X183161904Y-80326190D01*
X182828571Y-80516666D01*
X182971428Y-80516666D01*
X183066666Y-80540476D01*
X183114285Y-80564285D01*
X183161904Y-80611904D01*
X183161904Y-80730952D01*
X183114285Y-80778571D01*
X183066666Y-80802380D01*
X182971428Y-80826190D01*
X182685714Y-80826190D01*
X182590476Y-80802380D01*
X182542857Y-80778571D01*
X150257142Y-80778571D02*
X150209523Y-80802380D01*
X150066666Y-80826190D01*
X149971428Y-80826190D01*
X149828571Y-80802380D01*
X149733333Y-80754761D01*
X149685714Y-80707142D01*
X149638095Y-80611904D01*
X149638095Y-80540476D01*
X149685714Y-80445238D01*
X149733333Y-80397619D01*
X149828571Y-80350000D01*
X149971428Y-80326190D01*
X150066666Y-80326190D01*
X150209523Y-80350000D01*
X150257142Y-80373809D01*
X151209523Y-80826190D02*
X150638095Y-80826190D01*
X150923809Y-80826190D02*
X150923809Y-80326190D01*
X150828571Y-80397619D01*
X150733333Y-80445238D01*
X150638095Y-80469047D01*
X151590476Y-80373809D02*
X151638095Y-80350000D01*
X151733333Y-80326190D01*
X151971428Y-80326190D01*
X152066666Y-80350000D01*
X152114285Y-80373809D01*
X152161904Y-80421428D01*
X152161904Y-80469047D01*
X152114285Y-80540476D01*
X151542857Y-80826190D01*
X152161904Y-80826190D01*
X119957142Y-80678571D02*
X119909523Y-80702380D01*
X119766666Y-80726190D01*
X119671428Y-80726190D01*
X119528571Y-80702380D01*
X119433333Y-80654761D01*
X119385714Y-80607142D01*
X119338095Y-80511904D01*
X119338095Y-80440476D01*
X119385714Y-80345238D01*
X119433333Y-80297619D01*
X119528571Y-80250000D01*
X119671428Y-80226190D01*
X119766666Y-80226190D01*
X119909523Y-80250000D01*
X119957142Y-80273809D01*
X120909523Y-80726190D02*
X120338095Y-80726190D01*
X120623809Y-80726190D02*
X120623809Y-80226190D01*
X120528571Y-80297619D01*
X120433333Y-80345238D01*
X120338095Y-80369047D01*
X121861904Y-80726190D02*
X121290476Y-80726190D01*
X121576190Y-80726190D02*
X121576190Y-80226190D01*
X121480952Y-80297619D01*
X121385714Y-80345238D01*
X121290476Y-80369047D01*
X110378571Y-102966666D02*
X110402380Y-103014285D01*
X110426190Y-103157142D01*
X110426190Y-103252380D01*
X110402380Y-103395238D01*
X110354761Y-103490476D01*
X110307142Y-103538095D01*
X110211904Y-103585714D01*
X110140476Y-103585714D01*
X110045238Y-103538095D01*
X109997619Y-103490476D01*
X109950000Y-103395238D01*
X109926190Y-103252380D01*
X109926190Y-103157142D01*
X109950000Y-103014285D01*
X109973809Y-102966666D01*
X109926190Y-102109523D02*
X109926190Y-102300000D01*
X109950000Y-102395238D01*
X109973809Y-102442857D01*
X110045238Y-102538095D01*
X110140476Y-102585714D01*
X110330952Y-102585714D01*
X110378571Y-102538095D01*
X110402380Y-102490476D01*
X110426190Y-102395238D01*
X110426190Y-102204761D01*
X110402380Y-102109523D01*
X110378571Y-102061904D01*
X110330952Y-102014285D01*
X110211904Y-102014285D01*
X110164285Y-102061904D01*
X110140476Y-102109523D01*
X110116666Y-102204761D01*
X110116666Y-102395238D01*
X110140476Y-102490476D01*
X110164285Y-102538095D01*
X110211904Y-102585714D01*
M02*
