M48
; DRILL file {KiCad (5.1.4)-1} date 11/02/20 02:18:24
; FORMAT={-:-/ absolute / inch / decimal}
; #@! TF.CreationDate,2020-11-02T02:18:24+01:00
; #@! TF.GenerationSoftware,Kicad,Pcbnew,(5.1.4)-1
; #@! TF.FileFunction,Plated,1,4,PTH
FMAT,2
INCH
T1C0.0079
T2C0.0098
T3C0.0118
T4C0.0157
T5C0.0197
T6C0.0236
T7C0.0256
T8C0.0276
T9C0.0394
T10C0.0472
T11C0.1260
T12C0.1575
%
G90
G05
T1
X5.8686Y-4.0625
X5.8686Y-4.1068
X5.8686Y-4.1511
X5.8686Y-4.1954
X5.8686Y-4.2397
X5.9129Y-4.0625
X5.9129Y-4.1068
X5.9129Y-4.1511
X5.9129Y-4.1954
X5.9129Y-4.2397
X5.9572Y-4.0625
X5.9572Y-4.1068
X5.9572Y-4.1511
X5.9572Y-4.1954
X5.9572Y-4.2397
X6.0015Y-4.0625
X6.0015Y-4.1068
X6.0015Y-4.1511
X6.0015Y-4.1954
X6.0015Y-4.2397
X6.0458Y-4.0625
X6.0458Y-4.1068
X6.0458Y-4.1511
X6.0458Y-4.1954
X6.0458Y-4.2397
T2
X6.0551Y-2.8378
X6.0551Y-3.0268
X6.0551Y-3.074
X6.1024Y-2.8378
X6.1024Y-2.885
X6.1024Y-2.9323
X6.1024Y-2.9795
X6.1024Y-3.0268
X6.1024Y-3.074
X6.1496Y-2.8378
X6.1496Y-2.885
X6.1496Y-2.9323
X6.1496Y-2.9795
X6.1496Y-3.0268
X6.1496Y-3.074
X6.1969Y-2.8378
X6.1969Y-2.885
X6.1969Y-2.9323
X6.1969Y-2.9795
X6.1969Y-3.0268
X6.1969Y-3.074
X6.2441Y-2.8378
X6.2441Y-2.885
X6.2441Y-2.9323
X6.2441Y-2.9795
X6.2441Y-3.0268
X6.2441Y-3.074
X6.2913Y-2.8378
X6.2913Y-2.885
X6.2913Y-2.9323
X6.2913Y-2.9795
X6.2913Y-3.0268
X6.2913Y-3.074
X6.3386Y-2.8378
X6.3386Y-2.885
X6.3386Y-2.9323
X6.3386Y-2.9795
X6.3386Y-3.0268
X6.3386Y-3.074
X6.3858Y-2.8378
X6.3858Y-3.0268
X6.3858Y-3.074
X7.2756Y-2.8378
X7.2756Y-3.0268
X7.2756Y-3.074
X7.3228Y-2.8378
X7.3228Y-2.885
X7.3228Y-2.9323
X7.3228Y-2.9795
X7.3228Y-3.0268
X7.3228Y-3.074
X7.3701Y-2.8378
X7.3701Y-2.885
X7.3701Y-2.9323
X7.3701Y-2.9795
X7.3701Y-3.0268
X7.3701Y-3.074
X7.4173Y-2.8378
X7.4173Y-2.885
X7.4173Y-2.9323
X7.4173Y-2.9795
X7.4173Y-3.0268
X7.4173Y-3.074
X7.4646Y-2.8378
X7.4646Y-2.885
X7.4646Y-2.9323
X7.4646Y-2.9795
X7.4646Y-3.0268
X7.4646Y-3.074
X7.5118Y-2.8378
X7.5118Y-2.885
X7.5118Y-2.9323
X7.5118Y-2.9795
X7.5118Y-3.0268
X7.5118Y-3.074
X7.5591Y-2.8378
X7.5591Y-2.885
X7.5591Y-2.9323
X7.5591Y-2.9795
X7.5591Y-3.0268
X7.5591Y-3.074
X7.6063Y-2.8378
X7.6063Y-3.0268
X7.6063Y-3.074
X4.8543Y-2.8378
X4.8543Y-3.0268
X4.8543Y-3.074
X4.9016Y-2.8378
X4.9016Y-2.885
X4.9016Y-2.9323
X4.9016Y-2.9795
X4.9016Y-3.0268
X4.9016Y-3.074
X4.9488Y-2.8378
X4.9488Y-2.885
X4.9488Y-2.9323
X4.9488Y-2.9795
X4.9488Y-3.0268
X4.9488Y-3.074
X4.9961Y-2.8378
X4.9961Y-2.885
X4.9961Y-2.9323
X4.9961Y-2.9795
X4.9961Y-3.0268
X4.9961Y-3.074
X5.0433Y-2.8378
X5.0433Y-2.885
X5.0433Y-2.9323
X5.0433Y-2.9795
X5.0433Y-3.0268
X5.0433Y-3.074
X5.0906Y-2.8378
X5.0906Y-2.885
X5.0906Y-2.9323
X5.0906Y-2.9795
X5.0906Y-3.0268
X5.0906Y-3.074
X5.1378Y-2.8378
X5.1378Y-2.885
X5.1378Y-2.9323
X5.1378Y-2.9795
X5.1378Y-3.0268
X5.1378Y-3.074
X5.185Y-2.8378
X5.185Y-3.0268
X5.185Y-3.074
X6.7244Y-3.0677
X6.7244Y-3.115
X6.7244Y-3.3039
X6.7717Y-3.0677
X6.7717Y-3.115
X6.7717Y-3.1622
X6.7717Y-3.2094
X6.7717Y-3.2567
X6.7717Y-3.3039
X6.8189Y-3.0677
X6.8189Y-3.115
X6.8189Y-3.1622
X6.8189Y-3.2094
X6.8189Y-3.2567
X6.8189Y-3.3039
X6.8661Y-3.0677
X6.8661Y-3.115
X6.8661Y-3.1622
X6.8661Y-3.2094
X6.8661Y-3.2567
X6.8661Y-3.3039
X6.9134Y-3.0677
X6.9134Y-3.115
X6.9134Y-3.1622
X6.9134Y-3.2094
X6.9134Y-3.2567
X6.9134Y-3.3039
X6.9606Y-3.0677
X6.9606Y-3.115
X6.9606Y-3.1622
X6.9606Y-3.2094
X6.9606Y-3.2567
X6.9606Y-3.3039
X7.0079Y-3.0677
X7.0079Y-3.115
X7.0079Y-3.1622
X7.0079Y-3.2094
X7.0079Y-3.2567
X7.0079Y-3.3039
X7.0551Y-3.0677
X7.0551Y-3.115
X7.0551Y-3.3039
X4.3031Y-3.0677
X4.3031Y-3.115
X4.3031Y-3.3039
X4.3504Y-3.0677
X4.3504Y-3.115
X4.3504Y-3.1622
X4.3504Y-3.2094
X4.3504Y-3.2567
X4.3504Y-3.3039
X4.3976Y-3.0677
X4.3976Y-3.115
X4.3976Y-3.1622
X4.3976Y-3.2094
X4.3976Y-3.2567
X4.3976Y-3.3039
X4.4449Y-3.0677
X4.4449Y-3.115
X4.4449Y-3.1622
X4.4449Y-3.2094
X4.4449Y-3.2567
X4.4449Y-3.3039
X4.4921Y-3.0677
X4.4921Y-3.115
X4.4921Y-3.1622
X4.4921Y-3.2094
X4.4921Y-3.2567
X4.4921Y-3.3039
X4.5394Y-3.0677
X4.5394Y-3.115
X4.5394Y-3.1622
X4.5394Y-3.2094
X4.5394Y-3.2567
X4.5394Y-3.3039
X4.5866Y-3.0677
X4.5866Y-3.115
X4.5866Y-3.1622
X4.5866Y-3.2094
X4.5866Y-3.2567
X4.5866Y-3.3039
X4.6339Y-3.0677
X4.6339Y-3.115
X4.6339Y-3.3039
X5.5039Y-3.0677
X5.5039Y-3.115
X5.5039Y-3.3039
X5.5512Y-3.0677
X5.5512Y-3.115
X5.5512Y-3.1622
X5.5512Y-3.2094
X5.5512Y-3.2567
X5.5512Y-3.3039
X5.5984Y-3.0677
X5.5984Y-3.115
X5.5984Y-3.1622
X5.5984Y-3.2094
X5.5984Y-3.2567
X5.5984Y-3.3039
X5.6457Y-3.0677
X5.6457Y-3.115
X5.6457Y-3.1622
X5.6457Y-3.2094
X5.6457Y-3.2567
X5.6457Y-3.3039
X5.6929Y-3.0677
X5.6929Y-3.115
X5.6929Y-3.1622
X5.6929Y-3.2094
X5.6929Y-3.2567
X5.6929Y-3.3039
X5.7402Y-3.0677
X5.7402Y-3.115
X5.7402Y-3.1622
X5.7402Y-3.2094
X5.7402Y-3.2567
X5.7402Y-3.3039
X5.7874Y-3.0677
X5.7874Y-3.115
X5.7874Y-3.1622
X5.7874Y-3.2094
X5.7874Y-3.2567
X5.7874Y-3.3039
X5.8346Y-3.0677
X5.8346Y-3.115
X5.8346Y-3.3039
T3
X4.0157Y-4.7835
X4.0157Y-4.8425
X4.0157Y-4.9016
X4.0157Y-4.9606
X4.0157Y-5.0197
X4.0157Y-5.0787
X4.0472Y-4.7421
X4.0984Y-4.4567
X4.1339Y-4.9449
X4.1535Y-4.5236
X4.1929Y-5.315
X4.2087Y-4.4331
X4.2087Y-4.4921
X4.252Y-2.7638
X4.252Y-5.315
X4.2677Y-4.0787
X4.2677Y-4.1339
X4.2756Y-3.7402
X4.2795Y-4.9449
X4.2874Y-4.7677
X4.2874Y-4.8071
X4.2913Y-4.6693
X4.311Y-5.315
X4.3307Y-3.6614
X4.3346Y-4.1024
X4.3543Y-5.0315
X4.3563Y-4.8819
X4.3701Y-4.248
X4.3701Y-5.315
X4.374Y-4.3386
X4.3858Y-4.9715
X4.4094Y-4.3071
X4.4134Y-5.0315
X4.4213Y-4.3543
X4.4252Y-4.7677
X4.4262Y-4.0787
X4.4409Y-5.0551
X4.4528Y-4.5
X4.4528Y-4.8543
X4.4528Y-4.6181
X4.4705Y-5.0846
X4.4744Y-4.1024
X4.498Y-5.1161
X4.5039Y-4.5
X4.5039Y-4.6142
X4.5079Y-4.7717
X4.5118Y-4.2421
X4.5269Y-4.8576
X4.5315Y-5.1496
X4.5354Y-4.4724
X4.5433Y-4.7283
X4.5472Y-4.9803
X4.5669Y-4.378
X4.5822Y-4.0787
X4.6024Y-4.5315
X4.6102Y-4.8071
X4.6115Y-4.2376
X4.626Y-4.9764
X4.6368Y-4.0787
X4.6535Y-4.378
X4.6614Y-5.1919
X4.6654Y-4.7126
X4.6654Y-4.9921
X4.6654Y-5.0315
X4.6693Y-4.7835
X4.6693Y-4.8465
X4.6772Y-4.0984
X4.685Y-4.685
X4.6969Y-4.5945
X4.7047Y-4.7126
X4.7126Y-4.2441
X4.7244Y-4.8071
X4.7402Y-5.1398
X4.7441Y-4.3661
X4.7479Y-4.8535
X4.7717Y-4.0787
X4.7795Y-4.4724
X4.7953Y-4.3661
X4.7992Y-4.5374
X4.811Y-4.7992
X4.814Y-4.2431
X4.8169Y-4.5689
X4.8307Y-5.2638
X4.8361Y-4.5369
X4.8376Y-4.0787
X4.8504Y-4.7441
X4.8701Y-4.8543
X4.878Y-4.374
X4.8819Y-4.1063
X4.8858Y-4.7835
X4.9016Y-5.315
X4.906Y-4.5979
X4.9134Y-4.2392
X4.9173Y-4.374
X4.9173Y-4.7559
X4.9734Y-4.0787
X5.0138Y-4.2421
X5.0197Y-5.315
X5.0236Y-4.3346
X5.0354Y-4.5984
X5.0394Y-4.3898
X5.0433Y-4.8031
X5.0433Y-4.8543
X5.0667Y-4.8307
X5.0669Y-4.7785
X5.0715Y-4.0833
X5.1102Y-5.1929
X5.1142Y-4.1811
X5.1181Y-4.2402
X5.1216Y-4.5477
X5.122Y-4.6024
X5.1575Y-5.315
X5.185Y-5.1929
X5.1909Y-3.5138
X5.2323Y-5.1929
X5.252Y-4.1811
X5.252Y-4.2362
X5.2525Y-4.5477
X5.2559Y-2.6575
X5.2559Y-3.3898
X5.2559Y-4.6024
X5.3169Y-4.0827
X5.3346Y-5.315
X5.3366Y-4.0512
X5.3425Y-4.4636
X5.3543Y-4.0217
X5.437Y-4.3346
X5.4592Y-4.1245
X5.4685Y-2.7441
X5.5256Y-4.9075
X5.5315Y-5.315
X5.5433Y-4.2008
X5.5472Y-4.0295
X5.5866Y-5.0315
X5.6122Y-5.0965
X5.6355Y-4.2812
X5.6575Y-4.1033
X5.6614Y-4.8858
X5.6634Y-5.0531
X5.6673Y-4.9764
X5.6791Y-5.2283
X5.7047Y-4.3976
X5.7087Y-4.8976
X5.7283Y-5.0079
X5.7441Y-4.6929
X5.748Y-4.8976
X5.7677Y-4.3976
X5.7756Y-4.6929
X5.7874Y-4.9769
X5.7933Y-5.0531
X5.7953Y-4.0197
X5.8386Y-4.378
X5.8701Y-5.0984
X5.9016Y-4.8858
X5.9016Y-4.9291
X5.9016Y-5.1693
X5.9055Y-5.315
X5.9291Y-3.811
X5.9514Y-4.4015
X5.9606Y-4.7165
X5.9724Y-4.8858
X5.9961Y-4.7165
X6.0039Y-3.811
X6.0827Y-5.315
X6.0837Y-4.5354
X6.1014Y-4.8937
X6.1063Y-4.3031
X6.1339Y-4.3957
X6.1929Y-4.3976
X6.1929Y-4.6339
X6.2438Y-4.2011
X6.2441Y-4.1496
X6.2559Y-4.311
X6.2657Y-4.7362
X6.2795Y-5.315
X6.2835Y-4.3386
X6.2928Y-4.6805
X6.3081Y-4.3119
X6.3307Y-4.8622
X6.3858Y-4.0
X6.3937Y-3.5118
X6.4094Y-4.6811
X6.4488Y-3.3898
X6.4488Y-4.0
X6.4567Y-2.6575
X6.4724Y-3.752
X6.4764Y-5.315
X6.4852Y-4.6811
X6.5236Y-3.626
X6.5827Y-4.4921
X6.5827Y-4.5315
X6.5866Y-4.5669
X6.6024Y-4.626
X6.6024Y-4.6811
X6.6024Y-4.8386
X6.6142Y-4.0236
X6.6575Y-4.6969
X6.6575Y-4.748
X6.6575Y-4.815
X6.6732Y-5.315
X6.685Y-2.752
X6.7008Y-4.6063
X6.7283Y-4.2559
X6.7362Y-4.3819
X6.7598Y-4.1535
X6.7815Y-5.2224
X6.7854Y-4.4862
X6.8337Y-4.7953
X6.8346Y-4.1535
X6.8425Y-4.4882
X6.8425Y-4.7126
X6.8583Y-4.626
X6.8652Y-4.7717
X6.8701Y-5.315
X6.8937Y-4.689
X6.8996Y-4.4902
X6.8996Y-5.2205
X6.9213Y-4.7323
X6.9331Y-4.1929
X6.9331Y-4.2402
X6.9331Y-4.2874
X6.9587Y-4.4921
X7.0157Y-4.3937
X7.0177Y-5.2205
X7.0394Y-4.7795
X7.0394Y-4.8307
X7.0433Y-4.6063
X7.0669Y-5.315
X7.0748Y-4.7362
X7.0984Y-4.7795
X7.1102Y-4.4252
X7.1535Y-4.1575
X7.1535Y-4.2598
X7.4291Y-5.122
X7.4291Y-5.2402
X7.5394Y-5.122
X7.5394Y-5.2402
X7.5748Y-3.6575
X7.6102Y-3.5118
X7.6614Y-3.3976
X7.6772Y-2.6575
X7.7047Y-3.748
T4
X4.4193Y-2.7358
X4.4193Y-2.7752
X4.4587Y-2.7358
X4.4587Y-2.7752
X4.498Y-2.7358
X4.498Y-2.7752
X4.5039Y-2.4587
X4.5039Y-2.498
X4.5039Y-2.5374
X4.5039Y-2.5768
X4.5039Y-2.6161
X4.5039Y-2.6555
X4.5374Y-2.7358
X4.5374Y-2.7752
X4.5433Y-2.4587
X4.5433Y-2.498
X4.5433Y-2.5374
X4.5433Y-2.5768
X4.5433Y-2.6161
X4.5433Y-2.6555
X4.5768Y-2.7358
X4.5768Y-2.7752
X4.5827Y-2.4587
X4.5827Y-2.498
X4.5827Y-2.5374
X4.5827Y-2.5768
X4.5827Y-2.6161
X4.5827Y-2.6555
X4.6161Y-2.7358
X4.6161Y-2.7752
X4.622Y-2.4587
X4.622Y-2.498
X4.622Y-2.5374
X4.622Y-2.5768
X4.622Y-2.6161
X4.622Y-2.6555
X4.6555Y-2.7358
X4.6555Y-2.7752
X4.6614Y-2.4587
X4.6614Y-2.498
X4.6614Y-2.5374
X4.6614Y-2.5768
X4.6614Y-2.6161
X4.6614Y-2.6555
X4.6949Y-2.7358
X4.6949Y-2.7752
X4.6949Y-2.8154
X4.6949Y-2.8547
X4.6949Y-2.8933
X4.7008Y-2.4587
X4.7008Y-2.498
X4.7008Y-2.5374
X4.7008Y-2.5768
X4.7008Y-2.6161
X4.7008Y-2.6555
X4.7343Y-2.7358
X4.7343Y-2.7752
X4.7343Y-2.8154
X4.7343Y-2.8547
X4.7343Y-2.8933
X4.7402Y-2.4587
X4.7402Y-2.498
X4.7402Y-2.5374
X4.7402Y-2.5768
X4.7402Y-2.6161
X4.7402Y-2.6555
X4.7736Y-2.7358
X4.7736Y-2.7752
X4.7736Y-2.8154
X4.7736Y-2.8547
X4.7736Y-2.8933
X4.7795Y-2.4587
X4.7795Y-2.498
X4.7795Y-2.5374
X4.7795Y-2.5768
X4.7795Y-2.6161
X4.7795Y-2.6555
X4.8189Y-2.4587
X4.8189Y-2.498
X4.8563Y-3.2122
X4.8563Y-3.2476
X4.8563Y-3.287
X4.8563Y-3.3224
X4.8563Y-3.3579
X4.8563Y-3.3933
X4.8563Y-3.4287
X4.8563Y-3.4642
X4.8563Y-3.4996
X4.8583Y-2.4587
X4.8957Y-3.2122
X4.8957Y-3.2476
X4.8957Y-3.287
X4.8957Y-3.3224
X4.8957Y-3.3579
X4.8957Y-3.3933
X4.8957Y-3.4287
X4.8957Y-3.4642
X4.8957Y-3.4996
X4.935Y-3.2122
X4.935Y-3.2476
X4.9744Y-3.2122
X4.9744Y-3.2476
X5.0138Y-3.2122
X5.0138Y-3.2476
X5.0531Y-3.2122
X5.0531Y-3.2476
X5.0925Y-3.2122
X5.0925Y-3.2476
X5.1319Y-3.2122
X5.1319Y-3.2476
X5.6201Y-2.7358
X5.6201Y-2.7752
X5.6594Y-2.7358
X5.6594Y-2.7752
X5.6988Y-2.7358
X5.6988Y-2.7752
X5.7047Y-2.4606
X5.7047Y-2.5
X5.7047Y-2.5394
X5.7047Y-2.5787
X5.7047Y-2.6181
X5.7047Y-2.6575
X5.7382Y-2.7358
X5.7382Y-2.7752
X5.7441Y-2.4606
X5.7441Y-2.5
X5.7441Y-2.5394
X5.7441Y-2.5787
X5.7441Y-2.6181
X5.7441Y-2.6575
X5.7776Y-2.7358
X5.7776Y-2.7752
X5.7835Y-2.4606
X5.7835Y-2.5
X5.7835Y-2.5394
X5.7835Y-2.5787
X5.7835Y-2.6181
X5.7835Y-2.6575
X5.8169Y-2.7358
X5.8169Y-2.7752
X5.8228Y-2.4606
X5.8228Y-2.5
X5.8228Y-2.5394
X5.8228Y-2.5787
X5.8228Y-2.6181
X5.8228Y-2.6575
X5.8563Y-2.7358
X5.8563Y-2.7752
X5.8622Y-2.4606
X5.8622Y-2.5
X5.8622Y-2.5394
X5.8622Y-2.5787
X5.8622Y-2.6181
X5.8622Y-2.6575
X5.8957Y-2.7358
X5.8957Y-2.7752
X5.8957Y-2.8154
X5.8957Y-2.8547
X5.8957Y-2.8933
X5.9016Y-2.4606
X5.9016Y-2.5
X5.9016Y-2.5394
X5.9016Y-2.5787
X5.9016Y-2.6181
X5.9016Y-2.6575
X5.935Y-2.7358
X5.935Y-2.7752
X5.935Y-2.8154
X5.935Y-2.8547
X5.935Y-2.8933
X5.9409Y-2.4606
X5.9409Y-2.5
X5.9409Y-2.5394
X5.9409Y-2.5787
X5.9409Y-2.6181
X5.9409Y-2.6575
X5.9744Y-2.7358
X5.9744Y-2.7752
X5.9744Y-2.8154
X5.9744Y-2.8547
X5.9744Y-2.8933
X5.9803Y-2.4606
X5.9803Y-2.5
X5.9803Y-2.5394
X5.9803Y-2.5787
X5.9803Y-2.6181
X5.9803Y-2.6575
X6.0197Y-2.4606
X6.0197Y-2.5
X6.0571Y-3.2122
X6.0571Y-3.2476
X6.0571Y-3.287
X6.0571Y-3.3224
X6.0571Y-3.3579
X6.0571Y-3.3933
X6.0571Y-3.4287
X6.0571Y-3.4642
X6.0571Y-3.4996
X6.0591Y-2.4606
X6.0965Y-3.2122
X6.0965Y-3.2476
X6.0965Y-3.287
X6.0965Y-3.3224
X6.0965Y-3.3579
X6.0965Y-3.3933
X6.0965Y-3.4287
X6.0965Y-3.4642
X6.0965Y-3.4996
X6.1358Y-3.2122
X6.1358Y-3.2476
X6.1752Y-3.2122
X6.1752Y-3.2476
X6.2146Y-3.2122
X6.2146Y-3.2476
X6.2539Y-3.2122
X6.2539Y-3.2476
X6.2933Y-3.2122
X6.2933Y-3.2476
X6.3327Y-3.2122
X6.3327Y-3.2476
X6.8406Y-2.7358
X6.8406Y-2.7752
X6.8799Y-2.7358
X6.8799Y-2.7752
X6.9193Y-2.7358
X6.9193Y-2.7752
X6.9252Y-2.4606
X6.9252Y-2.5
X6.9252Y-2.5394
X6.9252Y-2.5787
X6.9252Y-2.6181
X6.9252Y-2.6575
X6.9587Y-2.7358
X6.9587Y-2.7752
X6.9646Y-2.4606
X6.9646Y-2.5
X6.9646Y-2.5394
X6.9646Y-2.5787
X6.9646Y-2.6181
X6.9646Y-2.6575
X6.998Y-2.7358
X6.998Y-2.7752
X7.0039Y-2.4606
X7.0039Y-2.5
X7.0039Y-2.5394
X7.0039Y-2.5787
X7.0039Y-2.6181
X7.0039Y-2.6575
X7.0374Y-2.7358
X7.0374Y-2.7752
X7.0433Y-2.4606
X7.0433Y-2.5
X7.0433Y-2.5394
X7.0433Y-2.5787
X7.0433Y-2.6181
X7.0433Y-2.6575
X7.0768Y-2.7358
X7.0768Y-2.7752
X7.0827Y-2.4606
X7.0827Y-2.5
X7.0827Y-2.5394
X7.0827Y-2.5787
X7.0827Y-2.6181
X7.0827Y-2.6575
X7.1161Y-2.7358
X7.1161Y-2.7752
X7.1161Y-2.8154
X7.1161Y-2.8547
X7.1161Y-2.8933
X7.122Y-2.4606
X7.122Y-2.5
X7.122Y-2.5394
X7.122Y-2.5787
X7.122Y-2.6181
X7.122Y-2.6575
X7.1555Y-2.7358
X7.1555Y-2.7752
X7.1555Y-2.8154
X7.1555Y-2.8547
X7.1555Y-2.8933
X7.1614Y-2.4606
X7.1614Y-2.5
X7.1614Y-2.5394
X7.1614Y-2.5787
X7.1614Y-2.6181
X7.1614Y-2.6575
X7.1949Y-2.7358
X7.1949Y-2.7752
X7.1949Y-2.8154
X7.1949Y-2.8547
X7.1949Y-2.8933
X7.2008Y-2.4606
X7.2008Y-2.5
X7.2008Y-2.5394
X7.2008Y-2.5787
X7.2008Y-2.6181
X7.2008Y-2.6575
X7.2402Y-2.4606
X7.2402Y-2.5
X7.2776Y-3.2122
X7.2776Y-3.2476
X7.2776Y-3.287
X7.2776Y-3.3224
X7.2776Y-3.3579
X7.2776Y-3.3933
X7.2776Y-3.4287
X7.2776Y-3.4642
X7.2776Y-3.4996
X7.2795Y-2.4606
X7.3169Y-3.2122
X7.3169Y-3.2476
X7.3169Y-3.287
X7.3169Y-3.3224
X7.3169Y-3.3579
X7.3169Y-3.3933
X7.3169Y-3.4287
X7.3169Y-3.4642
X7.3169Y-3.4996
X7.3563Y-3.2122
X7.3563Y-3.2476
X7.3957Y-3.2122
X7.3957Y-3.2476
X7.435Y-3.2122
X7.435Y-3.2476
X7.4744Y-3.2122
X7.4744Y-3.2476
X7.5138Y-3.2122
X7.5138Y-3.2476
X7.5531Y-3.2122
X7.5531Y-3.2476
T5
X4.3898Y-3.3858
X4.3898Y-3.4252
X4.3898Y-3.4646
X4.3898Y-3.5039
X4.3898Y-3.7283
X4.3898Y-3.7677
X4.3898Y-3.8071
X4.3898Y-3.8465
X4.5472Y-3.3858
X4.5472Y-3.4252
X4.5472Y-3.4646
X4.5472Y-3.5039
X4.5472Y-3.7283
X4.5472Y-3.7677
X4.5472Y-3.8071
X4.5472Y-3.8465
X4.9409Y-3.3976
X4.9409Y-3.437
X4.9409Y-3.4764
X4.9409Y-3.5157
X4.9409Y-3.7244
X4.9409Y-3.7638
X4.9409Y-3.8031
X4.9409Y-3.8425
X5.0748Y-4.7283
X5.0945Y-4.3543
X5.0984Y-3.3976
X5.0984Y-3.437
X5.0984Y-3.4764
X5.0984Y-3.5157
X5.0984Y-3.7244
X5.0984Y-3.7638
X5.0984Y-3.8031
X5.0984Y-3.8425
X5.1417Y-4.1142
X5.1693Y-4.7274
X5.189Y-4.1142
X5.189Y-4.3543
X5.2362Y-4.1142
X5.2628Y-4.7274
X5.2795Y-4.3543
X5.5906Y-3.3976
X5.5906Y-3.437
X5.5906Y-3.4764
X5.5906Y-3.5157
X5.5906Y-3.7244
X5.5906Y-3.7638
X5.5906Y-3.8031
X5.5906Y-3.8337
X5.748Y-3.3976
X5.748Y-3.437
X5.748Y-3.4764
X5.748Y-3.5157
X5.748Y-3.7244
X5.748Y-3.7638
X5.748Y-3.8031
X5.748Y-3.8337
X6.1417Y-3.3976
X6.1417Y-3.437
X6.1417Y-3.4764
X6.1417Y-3.5157
X6.1417Y-3.7244
X6.1417Y-3.7638
X6.1417Y-3.8031
X6.1417Y-3.8425
X6.2992Y-3.3976
X6.2992Y-3.437
X6.2992Y-3.4764
X6.2992Y-3.5157
X6.2992Y-3.7244
X6.2992Y-3.7638
X6.2992Y-3.8031
X6.2992Y-3.8425
X6.811Y-3.3976
X6.811Y-3.437
X6.811Y-3.4764
X6.811Y-3.5157
X6.811Y-3.7244
X6.811Y-3.7638
X6.811Y-3.8031
X6.811Y-3.8425
X6.9055Y-4.1063
X6.9685Y-3.3976
X6.9685Y-3.437
X6.9685Y-3.4764
X6.9685Y-3.5157
X6.9685Y-3.7244
X6.9685Y-3.7638
X6.9685Y-3.8031
X6.9685Y-3.8425
X7.2795Y-4.2913
X7.2795Y-4.4488
X7.2795Y-4.7362
X7.2795Y-4.8937
X7.3189Y-4.2913
X7.3189Y-4.4488
X7.3189Y-4.7362
X7.3189Y-4.8937
X7.3583Y-4.2913
X7.3583Y-4.4488
X7.3583Y-4.7362
X7.3583Y-4.8937
X7.3622Y-3.3976
X7.3622Y-3.437
X7.3622Y-3.4764
X7.3622Y-3.5157
X7.3622Y-3.7244
X7.3622Y-3.7638
X7.3622Y-3.8031
X7.3622Y-3.8425
X7.3976Y-4.2913
X7.3976Y-4.4488
X7.3976Y-4.7362
X7.3976Y-4.8937
X7.5197Y-3.3976
X7.5197Y-3.437
X7.5197Y-3.4764
X7.5197Y-3.5157
X7.5197Y-3.7244
X7.5197Y-3.7638
X7.5197Y-3.8031
X7.5197Y-3.8425
X7.6102Y-4.2913
X7.6102Y-4.4488
X7.6102Y-4.7362
X7.6102Y-4.8937
X7.6496Y-4.2913
X7.6496Y-4.4488
X7.6496Y-4.7362
X7.6496Y-4.8937
X7.689Y-4.2913
X7.689Y-4.4488
X7.689Y-4.7362
X7.689Y-4.8937
X7.7283Y-4.2913
X7.7283Y-4.4488
X7.7283Y-4.7362
X7.7283Y-4.8937
T6
X7.2638Y-2.6181
X7.2984Y-2.5346
X7.2984Y-2.7016
X7.3819Y-2.5
X7.3819Y-2.7362
X7.4654Y-2.5346
X7.4654Y-2.7016
X7.5Y-2.6181
X7.628Y-5.187
X7.6625Y-5.1035
X7.6625Y-5.2705
X7.7461Y-5.0689
X7.7461Y-5.3051
X7.8296Y-5.1035
X7.8296Y-5.2705
X7.8642Y-5.187
X7.1063Y-5.187
X7.1409Y-5.1035
X7.1409Y-5.2705
X7.2244Y-5.0689
X7.2244Y-5.3051
X7.3079Y-5.1035
X7.3079Y-5.2705
X7.3425Y-5.187
X4.8425Y-2.6181
X4.8771Y-2.5346
X4.8771Y-2.7016
X4.9606Y-2.5
X4.9606Y-2.7362
X5.0441Y-2.5346
X5.0441Y-2.7016
X5.0787Y-2.6181
X6.0433Y-2.6181
X6.0779Y-2.5346
X6.0779Y-2.7016
X6.1614Y-2.5
X6.1614Y-2.7362
X6.2449Y-2.5346
X6.2449Y-2.7016
X6.2795Y-2.6181
T9
X4.4244Y-5.2756
X4.5244Y-5.2756
X4.6244Y-5.2756
X4.7244Y-5.2756
X4.0551Y-3.9862
X4.0551Y-4.0862
X4.0551Y-4.1862
X4.0551Y-4.2862
X4.0551Y-4.3862
X4.1551Y-3.9862
X4.1551Y-4.0862
X4.1551Y-4.1862
X4.1551Y-4.2862
X4.1551Y-4.3862
T10
X5.9843Y-5.0197
X6.0827Y-5.0197
X6.1811Y-5.0197
X6.7717Y-4.9213
X6.7717Y-5.0197
X6.8701Y-4.9213
X6.8701Y-5.0197
X6.9685Y-4.9213
X6.9685Y-5.0197
X5.2323Y-5.0197
X5.3307Y-5.0197
X5.4291Y-5.0197
X6.378Y-4.9213
X6.378Y-5.0197
X6.4764Y-4.9213
X6.4764Y-5.0197
X6.5748Y-4.9213
X6.5748Y-5.0197
T11
X7.7756Y-3.878
X4.1142Y-5.1969
X7.7756Y-2.5394
X4.1142Y-2.5394
T12
X6.1614Y-2.6181
X7.3819Y-2.6181
X7.7461Y-5.187
X7.2244Y-5.187
X4.9606Y-2.6181
T7
G00X5.6341Y-5.1778
M15
G01X5.6341Y-5.162
M16
G05
G00X5.8246Y-5.1778
M15
G01X5.8246Y-5.162
M16
G05
T8
G00X5.6219Y-5.2978
M15
G01X5.6219Y-5.2781
M16
G05
G00X5.8368Y-5.2978
M15
G01X5.8368Y-5.2781
M16
G05
T0
M30
