G04 #@! TF.GenerationSoftware,KiCad,Pcbnew,(5.1.4)-1*
G04 #@! TF.CreationDate,2020-11-02T02:16:25+01:00*
G04 #@! TF.ProjectId,FER_ESC_v2r1,4645525f-4553-4435-9f76-3272312e6b69,rev?*
G04 #@! TF.SameCoordinates,Original*
G04 #@! TF.FileFunction,Profile,NP*
%FSLAX46Y46*%
G04 Gerber Fmt 4.6, Leading zero omitted, Abs format (unit mm)*
G04 Created by KiCad (PCBNEW (5.1.4)-1) date 2020-11-02 02:16:25*
%MOMM*%
%LPD*%
G04 APERTURE LIST*
%ADD10C,0.050000*%
G04 APERTURE END LIST*
D10*
X101000000Y-63000000D02*
X101000000Y-70000000D01*
X101000000Y-97000000D02*
G75*
G02X103000000Y-95000000I2000000J0D01*
G01*
X103000000Y-72000000D02*
G75*
G02X101000000Y-70000000I0J2000000D01*
G01*
X105000000Y-93000000D02*
G75*
G02X103000000Y-95000000I-2000000J0D01*
G01*
X103000000Y-72000000D02*
G75*
G02X105000000Y-74000000I0J-2000000D01*
G01*
X105000000Y-74000000D02*
X105000000Y-93000000D01*
X201000000Y-134000000D02*
X201000000Y-97000000D01*
X201000000Y-63000000D02*
X201000000Y-70000000D01*
X201000000Y-70000000D02*
G75*
G02X199000000Y-72000000I-2000000J0D01*
G01*
X197000000Y-93000000D02*
X197000000Y-74000000D01*
X197000000Y-74000000D02*
G75*
G02X199000000Y-72000000I2000000J0D01*
G01*
X199000000Y-95000000D02*
G75*
G02X197000000Y-93000000I0J2000000D01*
G01*
X199000000Y-95000000D02*
G75*
G02X201000000Y-97000000I0J-2000000D01*
G01*
X101000000Y-97000000D02*
X101000000Y-134000000D01*
X103000000Y-136000000D02*
G75*
G02X101000000Y-134000000I0J2000000D01*
G01*
X201000000Y-134000000D02*
G75*
G02X199000000Y-136000000I-2000000J0D01*
G01*
X199000000Y-61000000D02*
G75*
G02X201000000Y-63000000I0J-2000000D01*
G01*
X101000000Y-63000000D02*
G75*
G02X103000000Y-61000000I2000000J0D01*
G01*
X103000000Y-136000000D02*
X199000000Y-136000000D01*
X199000000Y-61000000D02*
X103000000Y-61000000D01*
M02*
